<?xml version="1.0" encoding="UTF-8"?>
<svg id="_图层_1" data-name="图层 1" xmlns="http://www.w3.org/2000/svg" xmlns:xlink="http://www.w3.org/1999/xlink" viewBox="0 0 171.32 176.15">
  <defs>
    <style>
      .cls-1 {
        opacity: .5;
      }

      .cls-2, .cls-3, .cls-4, .cls-5, .cls-6 {
        stroke-miterlimit: 10;
      }

      .cls-2, .cls-3, .cls-5 {
        stroke-width: .5px;
      }

      .cls-2, .cls-4, .cls-6 {
        fill: #fff;
      }

      .cls-2, .cls-6 {
        stroke: #423388;
      }

      .cls-7 {
        fill: none;
      }

      .cls-7, .cls-8, .cls-9 {
        stroke-width: 0px;
      }

      .cls-3 {
        stroke: #3e1e87;
      }

      .cls-3, .cls-9 {
        fill: #c3bedf;
      }

      .cls-8 {
        fill: #b4a8d2;
      }

      .cls-10 {
        clip-path: url(#clippath);
      }

      .cls-4, .cls-5 {
        stroke: #2e2676;
      }

      .cls-5 {
        fill: #f7f6fb;
      }

      .cls-6 {
        stroke-width: .25px;
      }
    </style>
    <clipPath id="clippath">
      <rect class="cls-7" x="5.5" y="8.21" width="76.81" height="159.84" rx="9.45" ry="9.45"/>
    </clipPath>
  </defs>
  <rect class="cls-3" x=".25" y="3.28" width="170.08" height="170.08" rx="13.9" ry="13.9"/>
  <rect class="cls-4" x="2.52" y="5.28" width="82.77" height="166.12" rx="12" ry="12"/>
  <rect class="cls-5" x="5.5" y="8" width="76.81" height="160.25" rx="9.45" ry="9.45"/>
  <g class="cls-10">
    <polygon class="cls-3" points="47.44 168.47 47.74 169.43 36.9 168.06 34.64 168.6 33.22 169.6 33.17 168.99 33.2 168.94 33.15 168.95 32.75 168.59 34.16 167.58 35.67 165.44 40.17 153.19 40.69 153.99 46.58 145.69 47.13 146.8 55.93 143.48 56.48 144.59 62.69 143.56 62.68 144.57 66.44 144.51 67.67 144.5 67.04 145.79 65.11 149.77 65.82 150.27 61.97 156.36 62.47 157.51 55.72 165.23 56.22 166.37 47.44 168.47"/>
    <polygon class="cls-3" points="50.17 139.21 50.93 139.62 42.48 148.11 41.19 150.46 40.76 152.4 40.37 152.02 40.37 151.95 40.34 152 39.85 152.1 40.26 150.15 40.11 147.32 36.26 134.74 37.09 134.86 36.5 123.85 37.52 124.16 41.85 114.13 42.87 114.43 46.67 108.29 47.24 109.01 49.87 105.69 50.73 104.61 51.02 106.07 51.94 110.57 52.72 110.3 53.5 117.97 54.51 118.34 54.16 129.69 55.17 130.06 50.17 139.21"/>
    <polygon class="cls-3" points="35.35 116.49 36.13 116.11 35.02 129.49 35.45 132.28 36.26 134.02 35.77 134.09 35.73 134.05 35.74 134.11 35.44 134.6 34.63 132.86 32.89 131 22.96 125.46 23.61 124.82 16.88 117.55 17.78 116.87 15.09 106.01 15.99 105.33 15.15 97.68 15.97 97.69 15.92 93.05 15.91 91.54 16.96 92.31 20.19 94.7 20.59 93.82 25.53 98.56 26.46 97.95 32.72 106.28 33.65 105.66 35.35 116.49"/>
    <polygon class="cls-3" points="46.27 102.27 47.03 102.68 38.61 111.17 37.33 113.52 36.9 115.46 36.51 115.08 36.51 115.02 36.48 115.07 35.99 115.16 36.41 113.21 36.25 110.38 32.42 97.8 33.25 97.92 32.66 86.91 33.68 87.22 37.98 77.19 39 77.49 42.78 71.35 43.35 72.07 45.97 68.75 46.82 67.67 47.11 69.13 48.03 73.63 48.81 73.37 49.58 81.03 50.59 81.4 50.24 92.75 51.25 93.13 46.27 102.27"/>
    <polygon class="cls-3" points="62.17 101.78 62.47 102.74 51.67 101.37 49.42 101.9 48.01 102.9 47.96 102.29 47.99 102.24 47.94 102.25 47.54 101.89 48.95 100.88 50.45 98.74 54.93 86.49 55.45 87.3 61.31 79 61.86 80.11 70.63 76.79 71.17 77.9 77.35 76.86 77.35 77.87 81.09 77.81 82.31 77.8 81.68 79.09 79.76 83.07 80.47 83.57 76.64 89.67 77.14 90.81 70.41 98.53 70.91 99.67 62.17 101.78"/>
    <polygon class="cls-3" points="64.82 72.26 65.58 72.67 57.17 81.16 55.88 83.51 55.45 85.45 55.07 85.07 55.07 85.01 55.03 85.06 54.55 85.15 54.96 83.21 54.8 80.37 50.98 67.79 51.8 67.91 51.21 56.9 52.23 57.21 56.54 47.18 57.56 47.49 61.34 41.34 61.91 42.06 64.52 38.74 65.38 37.66 65.67 39.12 66.59 43.63 67.37 43.36 68.14 51.02 69.15 51.39 68.8 62.75 69.8 63.12 64.82 72.26"/>
    <polygon class="cls-3" points="49.48 49.48 50.26 49.11 49.15 62.48 49.58 65.27 50.39 67.02 49.9 67.09 49.86 67.04 49.87 67.11 49.57 67.6 48.76 65.86 47.03 63.99 37.14 58.45 37.79 57.81 31.09 50.55 31.99 49.87 29.31 39.01 30.2 38.33 29.37 30.67 30.18 30.68 30.14 26.04 30.12 24.53 31.16 25.31 34.38 27.69 34.78 26.82 39.7 31.56 40.63 30.94 46.86 39.27 47.78 38.66 49.48 49.48"/>
    <polygon class="cls-3" points="60.39 35.24 61.15 35.65 52.73 44.14 51.45 46.49 51.02 48.43 50.63 48.04 50.63 47.98 50.6 48.03 50.11 48.13 50.53 46.18 50.37 43.35 46.54 30.77 47.37 30.89 46.78 19.88 47.8 20.18 52.1 10.16 53.12 10.46 56.9 4.32 57.47 5.04 60.09 1.72 60.94 .64 61.24 2.1 62.15 6.6 62.93 6.33 63.71 14 64.71 14.37 64.36 25.72 65.37 26.09 60.39 35.24"/>
  </g>
  <g>
    <g>
      <g id="_径向重复_" data-name="&amp;lt;径向重复&amp;gt;">
        <path class="cls-2" d="M23.67,72.54c-.1,0-.19-.02-.28-.04-.02-.03-.03-.07-.05-.1-.01.1-.03.22-.06.35-.02-.1-.03-.19-.04-.28.02-.02.05-.05.08-.08-.11.01-.22.03-.35.05.08-.04.17-.08.25-.12.03.01.07.03.1.05h.01s.02.01.02.01c.1.05.2.1.32.16Z"/>
      </g>
      <g id="_径向重复_-2" data-name="&amp;lt;径向重复&amp;gt;">
        <path class="cls-2" d="M23.36,72.25s-.01.07-.02.11v.04c-.01.1-.03.22-.06.35-.02-.1-.03-.19-.04-.28.02-.02.05-.05.08-.08-.11.01-.22.03-.35.05.08-.04.17-.08.25-.12.03.01.07.03.1.05l-.17-.34c.07.08.14.15.21.22Z"/>
      </g>
      <g id="_径向重复_-3" data-name="&amp;lt;径向重复&amp;gt;">
        <path class="cls-2" d="M23.6,72.11c-.05.09-.09.17-.13.25-.04.01-.08.01-.12.02h-.03c-.11.02-.22.04-.35.06.08-.04.17-.08.25-.12.03.01.07.03.1.05l-.17-.34c.07.08.14.15.21.22,0,.03-.01.07-.02.11.08-.07.17-.16.26-.25Z"/>
      </g>
      <g id="_径向重复_-4" data-name="&amp;lt;径向重复&amp;gt;">
        <path class="cls-2" d="M42.12,66.69l.09-.13-1.05-3.48-3-3.28-2.1-1.05-2.15-.28-.5.2.03-.54-.93-1.95-1.66-1.67-4.05-1.83-3.07.08-.09-.13-3.64-.08-4.04,1.84-1.66,1.67-.92,1.96.03.54-.5-.19-2.15.27-2.1,1.07-2.98,3.28-.88,2.95-.15.05-1.2,3.43.5,4.41,1.08,2.1,1.58,1.48.51.14-.33.41-.4,2.13.36,2.33,2.2,3.85,2.54,1.75v.15l2.89,2.21,4.35.89,2.32-.38,1.9-1.05.29-.45.29.45,1.91,1.04,2.32.37,4.35-.9,2.44-1.87.15.05,2.99-2.07,2.19-3.87.35-2.32-.4-2.13-.34-.41.52-.14,1.57-1.49,1.08-2.1.48-4.41-1.02-2.9ZM22.97,72.44c.08-.04.17-.08.25-.12.03.01.07.03.1.05l-.17-.34c.07.08.14.15.21.22,0,.03-.01.07-.02.11.08-.07.17-.16.26-.25-.05.09-.09.17-.13.25-.04.01-.08.01-.12.02.1.05.2.1.32.16-.1,0-.19-.02-.28-.04-.02-.03-.03-.07-.05-.1-.01.1-.03.22-.06.35-.02-.1-.03-.19-.04-.28.02-.02.05-.05.08-.08-.11.01-.22.03-.35.05Z"/>
        <path class="cls-2" d="M23.67,72.54c-.1,0-.19-.02-.28-.04-.02-.03-.03-.07-.05-.1t-.01-.02h-.01s-.17-.35-.17-.35c.07.08.14.15.21.22,0,.03-.01.07-.02.11.08-.07.17-.16.26-.25-.05.09-.09.17-.13.25-.04.01-.08.01-.12.02.1.05.2.1.32.16Z"/>
      </g>
      <g id="_径向重复_-5" data-name="&amp;lt;径向重复&amp;gt;">
        <path class="cls-2" d="M23.67,72.54c-.1,0-.19-.02-.28-.04-.02-.03-.03-.07-.05-.1-.01.1-.03.22-.06.35-.02-.1-.03-.19-.04-.28.02-.02.05-.05.08-.08h.01v-.02s.01,0,.01-.01c.08-.07.17-.16.26-.25-.05.09-.09.17-.13.25-.04.01-.08.01-.12.02.1.05.2.1.32.16Z"/>
      </g>
    </g>
    <g>
      <g id="_径向重复_-6" data-name="&amp;lt;径向重复&amp;gt;">
        <rect class="cls-6" x="15.46" y="80.01" width="1.18" height="1.47" transform="translate(-65.71 90.44) rotate(-85.52)"/>
        <polygon class="cls-6" points="19.46 81.84 18.36 82.59 17.39 81.68 18.49 80.93 19.46 81.84"/>
        <rect class="cls-6" x="20.22" y="81.49" width="1.47" height="1.18" transform="translate(6.47 -1.39) rotate(4.48)"/>
        <polygon class="cls-6" points="24.71 82.43 23.6 83.18 22.63 82.27 23.73 81.52 24.71 82.43"/>
        <polygon class="cls-6" points="15.21 79.27 14.11 80.02 13.13 79.11 14.24 78.36 15.21 79.27"/>
        <rect class="cls-6" x="25.51" y="81.24" width="1.47" height="1.18" transform="translate(6.46 -1.8) rotate(4.48)"/>
      </g>
      <g id="_径向重复_-7" data-name="&amp;lt;径向重复&amp;gt;">
        <rect class="cls-6" x="12.54" y="67.3" width="1.18" height="1.47" transform="translate(-15.55 4.96) rotate(-13.52)"/>
        <polygon class="cls-6" points="13.14 71.62 12.09 70.8 12.66 69.6 13.71 70.41 13.14 71.62"/>
        <rect class="cls-6" x="12.64" y="72.53" width="1.47" height="1.18" transform="translate(81.34 43.02) rotate(76.48)"/>
        <polygon class="cls-6" points="14.2 76.79 13.15 75.98 13.71 74.77 14.77 75.59 14.2 76.79"/>
        <polygon class="cls-6" points="14.27 66.79 13.22 65.97 13.78 64.76 14.84 65.58 14.27 66.79"/>
        <rect class="cls-6" x="14.52" y="77.48" width="1.47" height="1.18" transform="translate(87.59 44.98) rotate(76.48)"/>
      </g>
      <g id="_径向重复_-8" data-name="&amp;lt;径向重复&amp;gt;">
        <rect class="cls-6" x="23.72" y="60.6" width="1.18" height="1.47" transform="translate(63.88 8.54) rotate(58.48)"/>
        <polygon class="cls-6" points="20.91 62.46 21.36 61.2 22.68 61.37 22.23 62.62 20.91 62.46"/>
        <rect class="cls-6" x="18.82" y="62.55" width="1.47" height="1.18" transform="translate(69.23 106.74) rotate(148.48)"/>
        <polygon class="cls-6" points="16.32 65.06 16.77 63.8 18.09 63.97 17.64 65.22 16.32 65.06"/>
        <polygon class="cls-6" points="25.86 62.03 26.31 60.78 27.63 60.95 27.18 62.2 25.86 62.03"/>
        <rect class="cls-6" x="14.69" y="65.87" width="1.47" height="1.18" transform="translate(63.33 115.03) rotate(148.48)"/>
      </g>
      <g id="_径向重复_-9" data-name="&amp;lt;径向重复&amp;gt;">
        <rect class="cls-6" x="33.56" y="69.16" width="1.18" height="1.47" transform="translate(109.48 89.3) rotate(130.48)"/>
        <polygon class="cls-6" points="32.02 67.01 33.36 67.05 33.61 68.36 32.28 68.32 32.02 67.01"/>
        <rect class="cls-6" x="30.22" y="65.34" width="1.47" height="1.18" transform="translate(11.7 136.18) rotate(-139.52)"/>
        <polygon class="cls-6" points="28.13 63.45 29.46 63.49 29.71 64.8 28.38 64.76 28.13 63.45"/>
        <polygon class="cls-6" points="33.96 71.59 35.29 71.63 35.54 72.94 34.21 72.89 33.96 71.59"/>
        <rect class="cls-6" x="25.79" y="62.45" width="1.47" height="1.18" transform="translate(5.79 128.21) rotate(-139.52)"/>
      </g>
      <g id="_径向重复_-10" data-name="&amp;lt;径向重复&amp;gt;">
        <rect class="cls-6" x="28.45" y="81.16" width="1.18" height="1.47" transform="translate(24.56 168.68) rotate(-157.52)"/>
        <polygon class="cls-6" points="31.13 78.99 31.5 80.27 30.33 80.91 29.96 79.63 31.13 78.99"/>
        <rect class="cls-6" x="31.09" y="77.05" width="1.47" height="1.18" transform="translate(-52.08 77.37) rotate(-67.52)"/>
        <polygon class="cls-6" points="33.32 74.18 33.69 75.46 32.52 76.11 32.15 74.83 33.32 74.18"/>
        <polygon class="cls-6" points="27.38 82.24 27.75 83.52 26.58 84.16 26.21 82.88 27.38 82.24"/>
        <rect class="cls-6" x="32.48" y="71.94" width="1.47" height="1.18" transform="translate(-46.51 75.49) rotate(-67.52)"/>
      </g>
    </g>
  </g>
  <rect class="cls-4" x="85.29" y="5.23" width="82.77" height="166.12" rx="12" ry="12"/>
  <rect class="cls-5" x="88.42" y="8.19" width="76.81" height="160.25" rx="9.45" ry="9.45"/>
  <g>
    <g>
      <path class="cls-8" d="M95.43,22.49c-.72.35-1.35.91-2.07,1.29-.38.22-.77.45-1.09.75-.52.42-.91,1.26-1.61,1.36-.86.04-1.38-.77-1.6-1.44-.21-.48-.46-1.01-.18-1.5.32-.62,1.06-.95,1.57-1.44.82-.79,1.32-1.81,1.94-2.73.86-1.38,2.05-2.57,2.7-4.05.27-.7.75-1.34.84-2.1.16-1.11-.57-2.1-.94-3.1-.11-.39.02-.76.36-.55.3.2.55.74.9.99.73.61,1.97.79,2.43,1.68.1.25.1.53.08.8-.06.7-.13,1.38-.4,2.02-.38.77-.76,1.54-1.06,2.35-.52,1.04-1.18,2.1-2.09,2.9-.14.14-.35.37.09.29,1.93-.61,2.91.91,2.71,2.54-.08.58-.21,1.16-.41,1.7-.11.34-.4.73-.3,1.09.11.33.73.31,1.08.36.86.1,1.6.53,2.18,1.1.44.43.46,1.02.66,1.55.29.67.53,1.38.48,2.1-.07,1.26.05,2.71-.91,3.74-1.34,1.31-3.26,2.18-5.18,1.5-1.13-.24-2.28-.46-2.65-1.63-.11-.32-.15-.65-.21-.97-.08-.51-.25-1.02-.2-1.53.02-.29.1-.58.05-.86-.05-.31-.24-.59-.4-.87-.28-.48-.42-1.01-.58-1.52-.16-.52-.39-1.2.15-1.59.57-.42,1.51-.54,1.93-1.06.23-.26.37-.57.57-.85.16-.19,1.5-2.27,1.15-2.32h-.01ZM99.47,29.29c-.02-.8-.8-1.42-1.61-1.54-.45-.02-.95.13-1.33.33-.27.15-.46.38-.69.58-.39.31-.8.62-1.06,1.03-.17.29-.36.53-.62.75-.51.39-.06.93.1,1.38.16.4.39.84.78,1.03.39.18.83.32,1.26.41.7.04,1.44-.19,1.97-.59.46-.35,1.01-.73,1.26-1.27.39-.67.09-1.38-.05-2.07v-.04Z"/>
      <path class="cls-8" d="M102.86,18.68c.38-.28,1.09-.11,1.55-.09,1.79.24,3.63.35,5.39.76.31.09.6.23.89.37.62.31,1.3.52,1.9.88.7.34,1.36.72,1.96,1.23.6.4,1.2.82,1.47,1.52.14.32.16.68.14,1.04,0,.72.15,1.37-.16,2.04-.19.59-.83,1.27-1.42,1.32-.67-.05-1.11-.71-1.58-1.1-.44-.37-1.03-.48-1.57-.7-.55-.19-1.12-.35-1.69-.45-.56-.11-1.28.02-1.8-.26-.35-.41.71-.58,1.04-.6.66-.06,2.73-.53,2.76-1.32-.01-.14-.1-.27-.24-.39-.47-.4-1.13-.62-1.69-.94-.36-.2-.68-.43-1.03-.65-1.63-.97-3.51-1.44-5.26-2.15-.21-.1-.71-.24-.66-.49h0Z"/>
    </g>
    <g>
      <path class="cls-8" d="M99.19,124.63c-.55.25-1.04.5-1.55.7-.16.06-.45.06-.6-.02-.12-.06-.2-.28-.16-.4.13-.39.35-.76.48-1.15.13-.36.17-.74.3-1.1.07-.17.21-.38.4-.47.3-.14.45-.28.4-.57-.05-.3-.01-.61.11-.97.11.1.25.19.32.3.07.12.09.27.11.41.13.72.61.68,1.19.29.69-.47,1.29-1.01,1.92-1.53.1-.08.13-.23.12-.35-.02-.73-.03-1.46-.09-2.19-.05-.6-.18-1.21-.27-1.83-.71.24-1.38.5-2.09.7-1.01.28-2.05.52-3.08.78-.24.06-.5.1-.72.18-.96.33-1.91.68-2.88,1.02-.59.21-1.24-.1-1.3-.6,0-.06.05-.15.11-.18.97-.42,1.15-1.18,1.38-1.91.26-.82,1.08-1.08,1.96-.55.38.23.58.14.88-.05.66-.43,1.38-.81,2.02-1.26.78-.54,1.51-1.13,2.26-1.7.22-.17.4-.38.66-.5.46-.22.53-.49.4-.86-.09-.24-.15-.49-.19-.74-.13-.69-1.3-1.23-2.06-1.2-.15,0-.3.02-.44,0-.29-.04-.31-.17-.15-.33.05-.05.14-.1.22-.11.98-.12,1.97-.31,2.93.1.49.21.97.44,1.49.61.16.05.52-.01.62-.12.57-.58,1.09-1.19,1.63-1.79.5-.54,1.01-1.08,1.5-1.63.29-.33.55-.68.83-1.02.46-.56.95-1.09,1.36-1.67.56-.79,1.04-1.61,1.59-2.4.33-.47.58-.95.39-1.48-.07-.18-.24-.42-.45-.48-1.15-.32-2.31-.63-3.57-.48-.22.03-.43.08-.65.08-.12,0-.23-.09-.35-.14.09-.07.18-.18.29-.2,1.56-.26,3.12-.25,4.65.12.6.15,1.18.38,1.73.62.51.22.9,1.19.71,1.63-.13.29-.23.6-.42.86-.32.46-.7.89-1.07,1.33-.61.72-1.24,1.44-1.87,2.16-.77.88-1.54,1.76-2.33,2.64-.51.57-1.04,1.13-1.58,1.68-.47.48-.95.96-1.44,1.42-.85.8-.65,1.68-.34,2.56.09.27.35.28.66.22.53-.1,1.06-.18,1.59-.28.23-.04.5-.09.64-.21.59-.49,1.33-.44,2.04-.34.79.11,1.55.29,2.33.45,1.08.22,1.31.81.59,1.45-.59.53-1.11,1.1-1.73,1.61-1.13.92-2.32,1.81-3.48,2.72-.66.52-1.33,1.04-1.92,1.6-.18.17-.16.49-.15.74.02.38.13.75.16,1.12.02.23.14.33.43.34.36.02.73.06,1.09.09,1.76.11,3.19.76,4.44,1.65.43.31.6.82.97,1.18.59.57.56,1.2.4,1.84-.22.89-.74,1.65-1.77,2.16-.12.06-.28.09-.37.17-.72.63-1.68.92-2.69,1.14-.41.09-.85.18-1.27.17-.48,0-.61.16-.64.47-.04.32.2.39.57.42.54.05,1.08.12,1.59.24.96.24,1.4,1.14.96,1.85-.31.49-.61.99-.92,1.49-.26.42-.52.83-.77,1.25-.2.32.14.47.39.45.57-.05.99.16,1.42.35.67.3,1.35.59,1.99.94.2.11.41.43.33.55-.2.3-.31.71-.91.76-.26.02-.5.16-.76.18-.71.05-1.42.06-2.14.08-.19,0-.38-.04-.57-.06,0,.16,0,.31,0,.47.07,1.16.21,2.32.17,3.48-.02.53-.41,1.06-.69,1.57-.04.08-.44.16-.51.11-.66-.52-1.59-.51-2.4-.74-1.03-.29-2.16-.42-3.09-.83-1.1-.49-2.16-1.1-2.74-2.06-.27-.44-.69-.82-.97-1.26-.6-.94-1.02-1.9-.81-3,.13-.69.51-1.24,1.08-1.71,1.34-1.11,2.77-2.16,4.5-2.92.35-.15.72-.27,1.07-.43.3-.13.45-.32.26-.6-.07-.1-.13-.23-.1-.32.17-.47-.11-.91-.12-1.35-.02-1.02-.8-1.74-1.38-2.55-.35-.49-.69-.98-1.06-1.46-.34-.46-.71-.9-1.09-1.39ZM103.27,134.49c-.02-.05-.05-.24-.14-.26-.14-.03-.34.02-.5.07-.28.1-.54.24-.81.34-1.28.51-2.44,1.13-3.22,2.09-.51.63-.97,1.28-.57,2.05.15.29.51.54.58.84.12.47.53.75.85,1.1.48.54,1.21.79,1.9,1.1.82.36,1.69.41,2.58.17.13-.03.29-.17.29-.26.01-.43.1-.9-.07-1.29-.2-.47-.25-.92-.2-1.4.03-.27-.08-.46-.44-.61-.86-.37-1.11-.89-.94-1.46.23-.76.17-1.57.66-2.29.02-.03,0-.08.02-.2ZM105.72,127.94s-.07,0-.11.01c0,.2-.05.4.02.58.04.12.25.29.38.3,1.43.05,3.05-.69,3.36-1.81.29-1.02.13-1.89-1.07-2.57-.72-.41-1.52-.59-2.35-.75-.36-.07-.57.09-.57.37,0,.57.05,1.13.06,1.7,0,.21-.08.42-.04.62.08.52.2,1.04.31,1.56ZM104.98,117.66c.08.02.15.05.23.07.2-.23.39-.46.6-.69.8-.89,1.6-1.78,2.4-2.67.03-.03.06-.07.07-.11.05-.2-.03-.31-.32-.24-.91.22-1.83.43-2.73.68-.18.05-.43.25-.42.37.03.86.11,1.72.18,2.58ZM102.35,127.47c.09-.03.18-.07.27-.1-.04-.18,0-.4-.13-.54-.36-.41-.25-.85-.28-1.29-.02-.31-.16-.61-.21-.91-.02-.12.1-.26.14-.39.04-.11.07-.23.06-.35,0-.04-.19-.1-.27-.09-.59.11-1.19.21-1.77.36-.27.07-.38.22-.2.46.38.52.67,1.08,1.09,1.59.37.45.86.84,1.29,1.26ZM101.63,113.36c-.05,0-.1,0-.15,0-.36.59-1.39.69-1.76,1.44.32-.1.51-.15.67-.22.33-.14.66-.28.97-.44.15-.08.35-.18.38-.29.04-.16-.07-.33-.11-.5Z"/>
      <path class="cls-8" d="M102.47,99.33c-.46.26-.91.54-1.39.78-1.44.72-2.42,1.81-3.35,2.94-.36.44-.77.85-1.15,1.29-.91,1.06-1.84,2.11-2.7,3.19-.4.5-.76,1.03-1.44,1.28-.23.09-.56.16-.76.08-.41-.15-.77-.4-1.15-.61-.04-.02-.09-.08-.08-.11.08-.52-.51-.81-.62-1.21-.23-.85-.61-1.72.04-2.62.29-.41.21-1,.31-1.51.03-.17.11-.33.16-.49.2.08.54.14.57.25.21.82,1.08,1.5.76,2.46-.05.15.29.43.51.59.11.08.41.07.53-.01.47-.29.93-.61,1.33-.96.69-.59,1.33-1.22,2-1.83.05-.04.11-.08.17-.12,1.14-.79,2.26-1.6,3.42-2.37.64-.42,1.34-.79,2.05-1.15.2-.1.5-.06.75-.08.02.07.04.13.06.2Z"/>
    </g>
    <g>
      <path class="cls-8" d="M97.81,158.66c-.25.11-.55.17-.73.33-1.07.92-2.22,1.82-2.59,3.18-.31,1.17-.75,2.29-1.32,3.38-.3.59-.88.68-1.4.23-.52-.45-.71-.99-.57-1.6.17-.71.17-1.39-.02-2.1-.16-.62.2-1,.85-1.31.34-.16.62-.51.81-.83.49-.85.93-1.73,1.37-2.61.14-.28.22-.59.35-.92-.6.12-1.14.21-1.68.33-1.55.36-2.9-.14-3.23-1.72-.05-.23-.22-.43-.28-.66-.09-.3-.13-.61-.19-.91.06-.03.13-.05.19-.08.14.09.3.15.4.27.55.63,1.23.56,2.02.45,1.23-.17,2.26-.7,3.27-1.25.35-.19.6-.52.9-.78.1-.08.2-.21.32-.22.67-.08,1.34-.19,2.01-.17.38.01.74.26,1.11.4.21.08.42.14.63.21.18.06.5.12.51.2.03.21,0,.5-.15.64-.39.36-.9.62-1.3.97-.53.48-1.05.98-1.48,1.53-.52.67-.95,1.4-1.4,2.1-.09.14-.12.3-.17.45.83-.14,1.61-.23,2.36-.42.35-.09.75-.3.96-.56,1.29-1.6,2.95-2.83,4.75-3.94.8-.49,1.6-.99,2.45-1.4.62-.3,1.32-.48,2-.68.96-.29,1.94-.45,2.96-.32.85.11,1.56.42,2.13,1.05.88.99,1.25,2.13,1.11,3.33-.12,1.14-.38,2.3-.83,3.37-.41.98-.62,1.96-.77,2.97-.02.13.2.42.32.43,1.01.07,2.02.11,3.04.13,1.3.03,2.67-.07,3.81.53.54.29.85.92,1.25,1.42.04.05-.08.22-.17.3-.62.63-1.43.91-2.35.88-1.34-.05-2.68-.16-4.02-.26-.31-.03-.61-.18-.93-.23-.27-.04-.55-.03-.76-.04-.33-.2-.62-.43-.96-.57-.81-.32-1.31-.82-1.65-1.57-.45-1-.58-2.01-.53-3.05.02-.53.15-1.07.35-1.56.6-1.47.32-2.98.24-4.46-.04-.75-.78-1.07-1.64-.82-.83.24-1.66.48-2.46.77-2.01.73-3.65,1.9-5.05,3.36-.41.43-.78.89-1.18,1.34.02.04.04.1.07.11,1.52.49,1.69,1.67,1.82,2.83.07.61.01,1.26-.14,1.86-.27,1.09-.91,1.99-2.03,2.6-.51.28-.98.58-1.61.55-1.55-.07-2.86-.57-3.44-1.89-.27-.61-.33-1.38.15-2.03.68-.92,1.35-1.85,2.04-2.76.18-.23.39-.45.59-.67-.05-.05-.1-.09-.14-.14ZM99.75,159.4c-.08.02-.13.02-.14.04-.69.82-1.29,1.69-1.66,2.67-.11.29.17.57.45.45.3-.14.64-.32.82-.56.57-.78.77-1.65.54-2.6Z"/>
      <path class="cls-8" d="M93.97,148.89c.14-.21.25-.38.37-.58-.59-.3-1.19-.56-1.37-1.2-.1-.36-.26-.7-.36-1.06-.02-.08.08-.19.14-.28.28-.43.18-.93-.34-1.25.26-.05.48-.16.65-.12.54.12,1.08-.05,1.65.23.48.23,1.17.25,1.74.18,1.1-.12,1.91.37,2.67.88.42.28.65.81.92,1.25.05.09-.03.34-.14.4-.38.21-.8.37-1.2.55-.09.04-.23.02-.31.08-1.15.86-2.6.75-3.95.92-.14.02-.28,0-.46,0Z"/>
    </g>
    <g>
      <path class="cls-8" d="M94.49,68.57c2,.3,4.03-.17,5.89-1.11,1.84-.7,3.97-1.27,5.99-1.18,3.29.83,2.57,3.98.7,5.84-1.02.99-2.49,1.59-3.83,2.1-1.96.9-3.57,2.49-5.33,3.71-.26.21-.16.24.18.16,3.02-.78,6.21-1.32,9.15-2.02.48.05,1.12.23,1.62.36.92.18,1.36.38,1.55,1.17.29.81.56,2-.02,2.8-1.03,1.27-2.03,2.77-3.61,3.47-1.3.36-3,.12-4.22.67-.1.1.12.31.38.56.55.47.61,1.15.38,1.77-.12.38-.33.75-.21,1.08.09.34.45.62.78.91.65.57,1.16,1.29,1.32,2.1.19.75,1.24.93,1.56,1.64.24.68.84,1.99-.26,2.1-.77.06-1.49-.74-2.04-.05-1.16,1.79-6.4,5.12-8.14,2.65-1.31-4.29,1.57-5.23,5.48-5.99,1.01-.38.27-1.83-.61-1.95-1.33-.26-1.31-1.73-.89-2.67.32-.79-.34-.84-1.18-.76-2.28.17-1.88-.89-.62-2,1.41-.48,2.84-1.14,4.2-1.82,1.51-.68,3.37-.97,4.76-1.98.49-.29,1.21-.84,1-1.42-.11-.25-.47-.4-.83-.39-1.03.12-1.94.9-3.06.88-2.97.34-6.34.59-9.11,1.89-1.81.68-3.34,2.07-5.23,2.61-.56.15-1.12.12-1.37-.21-.45-.79.72-1.73,1.15-2.4.68-.74,1.86-.67,2.7-1.17.48-.27.84-.63,1.25-.95,2.43-1.7,3.81-4.15,6.11-5.78,1.23-.99,2.29-2.14,3.68-2.98.84-.54,1.77-1.27,2.22-2.09.05-.23-.17-.38-.49-.49-.9-.32-1.93-.5-2.91-.37-2.21.23-3.03,2.56-4.89,3.49-1.64.88-3.34-.59-3.24-2.12l.06-.05ZM100.51,93.22s0-.02,0-.03c-.38.03-.76.02-1.12.08-1.82.31-2.27,1.13-1.65,2.55.05.11.15.21.24.31.14.16.31.18.55.1.65-.23,1.22-.56,1.63-1.02.48-.53.89-1.09,1.32-1.65.12-.15.04-.29-.2-.31-.25-.02-.5-.03-.75-.04Z"/>
      <path class="cls-8" d="M89.36,70.28c0-.27-.02-.54.01-.8.01-.1.12-.25.22-.27.11-.02.35.05.38.12.11.25.37.33.63.45.72.33,1.06.9,1.33,1.49.2.45.32.91.13,1.39-.13.31-.29.62-.71.73-.41.11-.71-.08-.94-.31-.31-.31-.62-.63-.86-.97-.15-.21-.2-.48-.21-.73-.01-.37.05-.73.07-1.1-.02,0-.03,0-.05,0Z"/>
    </g>
    <g>
      <path class="cls-8" d="M112.41,60.92c-.24.21-.57.36-.71.62-.67,1.26-1.68,2.19-2.87,2.95-.66.43-1.38.5-2.28.35,1.39-1.53,2.83-2.86,3.84-4.52-.03-.05-.07-.09-.1-.14-.2.08-.39.18-.59.25-.47.16-.94.34-1.43.45-.42.09-.77-.06-.99-.48-.15-.29-.35-.56-.53-.83-.42-.62-.22-1.18.21-1.8.09.41.12.75.24,1.06.24.64,1.14.82,1.6.32.1-.11.08-.4,0-.55-1.05-1.98-1.36-4.1-1.48-6.3-.1-1.94.06-3.85.32-5.76.15-1.14.51-2.2,1.34-3.06.13-.13.24-.29.33-.45.24-.45.06-.74-.46-.79-1.08-.09-2.16-.22-3.24-.28-.68-.04-1.08.46-1.48.91-.11.12-.16.37-.27.39-.87.2-.99.85-.99,1.55,0,.88-.8,1.26-1.16,1.91-.16.3-.39.57-.67.97.3.02.49.03.67.05.89.07,1.79.07,2.66.23.59.11,1.26.32,1.02,1.21-.05.18.1.42.17.68-.21.02-.4,0-.53.07-.18.1-.43.26-.44.42-.05.49-.28.65-.75.59-1.01-.13-2.02-.26-3.11-.4.13.82-.19,1.49-.79,2.07-.08.07.02.41.13.56.24.33.59.59.78.94.12.23.1.58.02.85-.2.71-.48,1.39-.69,2.1-.03.1.09.31.2.36.31.16.67.25.97.42.41.23.88.45,1.15.8.74.98,1.29,2.1,1.46,3.29.11.8-.1,1.66-.25,2.48-.07.37-.34.57-.85.52-.42-.04-.88.15-1.3.28-.59.19-1.17.43-1.76.65-.47.17-1.66-.33-1.81-.81-.13-.44-.15-.91-.22-1.35.51,0,1.09.17,1.37-.03.69-.51,1.26-1.17,1.85-1.81.12-.13.15-.41.09-.59-.25-.77-.48-1.56-.85-2.28-.28-.54-.71-.47-1.04.04-.98,1.51-2.03,2.96-3.8,3.69-.16.07-.28.24-.44.34-.15.1-.33.16-.67.17.06-.19.06-.45.19-.55.87-.64,1.33-1.57,1.84-2.46.27-.47.51-.95.82-1.54-.68.08-1.18.14-1.68.21-.03-.07-.05-.15-.08-.22.33-.16.64-.34.98-.46.7-.25,1.37-.47,1.51-1.36.08-.5.36-.96.51-1.45.07-.22.04-.47.05-.71-.07-.02-.14-.05-.21-.07-.39.41-.79.82-1.18,1.23-.33.34-.64.69-.98,1.03-.6.61-1.18,1.23-1.81,1.8-.55.48-1.14.94-1.77,1.32-.99.59-2.04,1.11-3.06,1.65-.08.04-.19.04-.37.08.07-.16.08-.28.14-.32,1.54-1.02,2.78-2.36,3.99-3.71.79-.89,1.48-1.88,2.22-2.82.19-.24.46-.43.63-.68.11-.16.09-.4.13-.6-.19.02-.42-.02-.56.07-.82.52-1.61,1.1-2.44,1.62-.92.57-1.91.8-2.94.3-.16-.08-.33-.4-.29-.57.06-.31.19-.67.42-.88.54-.5,1.16-.92,1.83-1.44.02.44.11.76.51.5,1.98-1.29,3.42-3.09,4.76-5.08-.18.06-.38.09-.53.19-1.23.82-2.45,1.63-3.66,2.48-.42.3-.83.64-1.15,1.04-.31.38-.63.36-.79.03-.31-.66-.56-1.36-.7-2.07-.04-.23.33-.58.58-.81.18-.17.46-.24.73-.36.08.23.16.45.29.83.64-.38,1.24-.73,1.92-1.13-1.21-.75-2.2-1.53-2.29-3-.09-1.57.44-2.88,1.42-4,0,.76-.03,1.57.02,2.37.02.27.15.6.35.78.1.09.47-.1.71-.19.49-.18,1-.33,1.44-.58.51-.29.97-.68,1.45-1.03.21-.16.41-.33.61-.5.06.03.12.06.18.09-.16.46-.31.92-.49,1.37-.26.68-.55,1.35-.81,2.03-.04.09,0,.29.07.33.1.06.3.08.39.02.48-.29.96-.59,1.4-.93.13-.1.19-.36.19-.55,0-1.33.1-2.67-.07-3.98-.16-1.19-.38-2.47-1.8-3.06.03-.06.06-.12.09-.19.23,0,.5-.07.7.01.94.36,1.87.73,2.77,1.15.28.13.45.46.69.68.33.29.26.56.05.87-.05.07,0,.2,0,.29.02.37.02.75.06,1.12.01.14.1.28.15.42.11-.04.27-.05.31-.13.39-.67.76-1.35,1.2-2.14-.43-.05-.74-.09-1.06-.12.08-.72.4-1.02,1.1-1.12.3-.04.59-.19.89-.27.9-.21,1.75.01,2.56.37.47.21.58.84.23,1.47-.26.48-.58.93-.89,1.43.14.05.26.14.32.11.72-.3,1.5-.53,2.13-.97,1.04-.72,1.91-1.66,2.97-2.33.66-.42,1.53-.7,2.31-.71.77,0,1.55.41,2.31.65.13.04.23.18.35.25.56.34.54.45.04.86-.18.15-.3.49-.27.72.06.45-.07.73-.47.89-.68.27-1.37.51-2.05.76-.47.17-.93.36-1.41.5-.25.07-.53.05-.8.07-.23.02-.46.04-.69.05,0,.05-.02.11-.03.16.3.16.6.32.9.49.92.5,1,.85.33,1.62-.36.42-.76.81-1.12,1.23-.14.16-.23.37-.34.55.04.04.08.08.12.11.4-.28.83-.51,1.19-.83.92-.84,2.04-.98,3.17-.75.43.09.91.62,1.09,1.05.65,1.62.49,3.34.5,5.03,0,1.19.03,2.38.05,3.57.03,2.01.08,4.02.09,6.03,0,.24-.15.52-.31.72-.35.44-.15.73.19,1.04.3.28.57.59.81.92.11.15.19.41.13.57-.19.52-.1.91.36,1.23.06.05.02.24.03.36-.11-.01-.23,0-.33-.04-.51-.22-1.03-.44-1.53-.69-.3-.14-.61-.29-.84-.51-.64-.61-1.24-1.26-1.88-1.91.35-.14.53-.33,0-.61-.27-.14-.46-.41-.69-.62.55.06,1.11.11,1.63.17-.12-.67-.22-1.32-.36-1.96-.01-.07-.4-.12-.41-.11-.25.66-.98,1.11-.84,1.93ZM109.92,50.86c.15-.11.29-.22.44-.32.43-.32.83-.69,1.3-.95.63-.35,1.25-.27,1.49.09.24.36-.04,1-.58,1.42-.67.52-1.42.85-2.27.96-.19.03-.5.29-.5.45-.02.63.06,1.26.12,1.89.04.41.29.48.61.26.4-.29.78-.62,1.16-.93.5-.42,1.09-.7,1.73-.54.59.14.68-.1.65-.55-.06-.94-.11-1.89-.21-2.82-.06-.61-.14-1.23-.32-1.81-.22-.71-.53-.76-1.14-.34-.63.43-1.25.87-1.91,1.26-.82.48-1,.99-.54,1.94ZM110.25,57.92c.07.05.14.09.21.14.37-.42.74-.84,1.11-1.26.5-.57.84-1.37,1.85-1.13.09.02.26-.03.29-.09.11-.25.18-.52.27-.79-.22,0-.44-.05-.65,0-.19.05-.35.23-.55.29-.83.26-1.4,1.07-2.36,1.06-.1,0-.28.27-.28.41,0,.46.06.92.1,1.38ZM97.44,51.89c-.4.42-.8.85-1.26,1.34.75.12,1.3-.47,1.26-1.34ZM110.58,44.44c.09-.03.17-.06.26-.08l-.16-.65c-.12.06-.34.15-.34.18.05.19.15.37.23.55Z"/>
      <path class="cls-8" d="M106.73,55.27c-.05.12-.2.4-.29.7-.06.2-.04.42-.08.63-.11.57-.14,1.17-.36,1.69-.21.49-.91.56-1.19.1-.45-.74-.77-1.56-1.11-2.36-.2-.46-.34-.95-.53-1.42-.17-.42-.32-.87-.6-1.21-.27-.33-.71-.54-1.06-.81-.14-.11-.24-.25-.36-.38.14-.1.29-.29.43-.28,1.54.07,3.06.22,4.31,1.22.6.48.81,1.17.85,2.11Z"/>
    </g>
  </g>
  <g>
    <path class="cls-9" d="M119.05,93.58c.7-.15,1.52-.28,2.31-.5,2.15-.61,4.26-1.36,6.08-2.68,1.16-.84,2.19-1.88,3.28-2.83.37-.33.71-.7,1.11-.99,1.09-.8,1.38-2.05,1.87-3.2.21-.5.49-.96.77-1.42.08-.13.26-.21.46-.38.14.59.29,1.08.37,1.58.23,1.57.43,3.14.66,4.71.14.91-.28,1.37-1.09,1.7-.96.39-.87.49-.15,1.26.88.94,1.75.77,2.74.32.4-.18.86-.26,1.3-.35.12-.02.38.08.39.14.03.27.1.63-.04.82-.49.67-1,1.35-1.6,1.92-.65.61-1.43,1.08-2.13,1.64-.16.13-.24.37-.36.56.21.04.47.17.64.1,1.17-.47,2.36-.93,3.18-1.97.05-.07.13-.13.21-.17.89-.42,1.44-1.17,1.92-1.99.11-.19.27-.42.45-.47.54-.15.89-.37,1.25-.87.25-.35,1.04-.3,1.59-.43.03.2.16.47.08.57-.45.58-.3,1.42.4,1.66.67.24,1.04.65,1.19,1.34.05.23.25.49.45.61.68.38,1.37.78,2.11,1.02.29.1.79-.09,1.05-.32.15-.14.14-.69,0-.89-.36-.48-.81-.91-1.29-1.27-.57-.42-1.22-.75-1.84-1.1-.53-.3-1.08-.57-1.62-.85v-.3c.29-.1.56-.26.84-.27.78-.05,1.56-.02,2.35-.05.45-.02.69-.42.52-.82-.33-.79-1.11-1.24-1.97-1.1-.79.13-1.58.35-2.37.39-.51.02-1.04-.22-1.56-.35-.17-.05-.34-.12-.49-.22-.63-.4-1.21-.67-1.56.33-.05.15-.37.29-.57.3-.63.03-1.27.05-1.88-.04-.68-.1-1.27-1.12-1.13-1.99.33-2.03-.14-4.03-.16-6.05,0-.54.03-1.08.02-1.62,0-.18-.03-.46-.14-.52-.13-.07-.4,0-.55.09-.64.4-.91.41-1.23-.29-.6-1.3-1.74-1.34-2.89-1.41-.31-.02-.64.09-.94.05-1.43-.17-2.73.36-4.06.72-.54.14-1.11.22-1.64.4-.28.1-.51.36-.76.55.17.22.29.48.5.64.86.66,1.6.06,2.38-.24.55-.21,1.13-.35,1.7-.51.3-.08.66-.07.91-.23.89-.57,1.84-.38,2.76-.24.77.12,1.24,1.39.95,2.16-.68,1.77-1.93,3.08-3.29,4.33-.67.62-1.18,1.45-1.9,1.99-1.08.82-2.24,1.57-3.45,2.18-1.07.55-2.23.98-3.4,1.27-.73.18-1.56.03-2.34-.05-.57-.06-.86.12-.79.71.03.34.13.67.18,1,.09.63.17,1.26.26,1.91Z"/>
    <path class="cls-9" d="M145.65,86.05c-.01.26-.03.5-.03.74,0,.51.15.91.75.91.48,0,.71-.38.72-.95,0-.69.12-1.37.15-2.06.03-.63-.04-1.28.03-1.91.08-.69.24-1.38.46-2.04.07-.2.44-.39.69-.42.14-.01.42.29.47.49.34,1.44.61,2.9.95,4.34.3,1.26.59,2.54,1.03,3.76.42,1.14,1.03,2.2,1.56,3.29.15.3.3.61.45.9.32.62.61,1.26,1,1.83.14.2.55.36.81.32.76-.1,1.29-1.32.98-2.02-.4-.89-.68-1.84-1.09-2.72-.65-1.38-1.43-2.7-2.06-4.09-.57-1.27-1.03-2.6-1.48-3.92-.08-.24.02-.65.19-.85.12-.14.51-.07.77-.04.87.12,1.74.28,2.62.39.89.12,1.8.12,2.67.31.92.2,1.59-.32,2.36-.59.17-.06.33-.21.49-.21.59,0,1.09-.05.97-.87-.02-.13.32-.29.43-.47.11-.2.19-.45.18-.68,0-.07-.33-.18-.51-.19-2.18-.07-4.36-.11-6.54-.19-1.26-.05-2.51-.16-3.77-.22-.49-.02-1.01-.05-1.47.07-.96.25-1.72-.33-1.97-.95-.55-1.37-1.55-1.09-2.45-.88-.77.18-1.52.27-2.31.32-1.05.07-2.08.33-3.12.51-.42.07-.85.12-1.26.25-.19.06-.32.29-.48.44.21.16.4.37.63.46.13.05.33-.11.5-.14.3-.05.62-.15.92-.1.65.12.8.59.32,1.06-.45.44-.99.78-1.46,1.2-.2.18-.31.46-.47.69.29.01.63.13.87.02.99-.45,1.95-.97,2.92-1.46.06-.03.12-.05.11-.04.83.72,1.62,1.41,2.43,2.08.34.28.73.41,1.05-.04.21-.3-.02-.95-.44-1.15-.81-.39-1.65-.72-2.44-1.14-.26-.14-.4-.48-.6-.73.19-.12.4-.23.58-.37.85-.63,1.79-.08,2.68-.2.14-.02.46.33.47.52.06,1.12.1,2.25.05,3.37-.03.8-.19,1.59-.29,2.35-.14.03-.21.05-.22.04-.8-.99-1.99-.79-3.04-.99-.35-.07-.59-.11-.82-.43-.45-.62-.71-.59-1.21-.02-.54.61-1.11,1.18-1.63,1.8-.18.22-.26.53-.45.94,1.18-.27,2.07-.53,2.68-1.4.35-.49.71-.81,1.4-.2.64.57,1.51.88,2.31,1.24.25.11.6.02.99.02Z"/>
    <path class="cls-9" d="M144.92,63.11c.06,1.03-.35,1.31-1.11,1.2-.48-.07-1.01.03-1.48.19-.4.13-.44.52-.24.91.32.63.88.98,1.51,1.15.59.16.86.48.96,1.06.15.85.54,1.05,1.27.58.41-.27.78-.67,1.01-1.1.43-.77,1.11-.91,1.87-.98.71-.06,1.45-.04,2.12-.24.42-.13.89-.54,1.06-.94.14-.34-1.1-1.11-1.63-1.04-.45.06-.89.16-1.33.23-.22.04-.45.05-.67.07-.72.05-1.38,0-1.69-.84-.09-.25-.44-.45-.71-.59-.19-.1-.5-.17-.65-.08-.18.1-.26.39-.28.44Z"/>
    <path class="cls-9" d="M142.77,71.81c-1.56.17-3.19.33-4.81.55-.27.04-.58.26-.74.49-.06.09.18.52.37.64.42.26.9.42,1.36.61.2.09.53.14.56.27.05.19-.06.48-.2.64-.33.37-.73.66-1.06,1.03-.15.17-.2.44-.3.66.24.06.5.22.71.18,1.27-.27,1.98-1.23,2.58-2.27.26-.46.53-.83,1.13-.78.79.07,1.49.35,1.86,1.04.13.23-.13.7-.27,1.04-.07.17-.33.26-.42.43-.09.17-.07.39-.1.6.2,0,.5.09.6-.02.48-.5.9-1.05,1.34-1.59.06-.07.06-.17.12-.24.47-.58.63-1.17.11-1.83-.41-.52-.75-1.05-1.52-1.1-.42-.02-.82-.21-1.31-.34Z"/>
    <path class="cls-9" d="M137,64.94c-1.13.23-1.78-.16-2.3-.88-.15-.21-.38-.41-.61-.5-.43-.17-.82.16-.77.62.12,1.34-.97,2.14-2.25,1.7-.34-.12-.74-.15-1.11-.11-.77.08-.95.5-.53,1.14.86,1.3,1.48,1.51,2.98,1,1.2-.4,1.36-.32,1.94.78.12.23.32.48.54.57.16.06.47-.1.61-.26.13-.15.16-.43.15-.65-.01-.74.35-1.13,1.03-1.4.54-.22,1.05-.64.84-1.35-.08-.28-.38-.49-.51-.65Z"/>
    <path class="cls-9" d="M149.58,76.11c1.21-.16,2.34-.34,3.49-.46.71-.07,1.44.05,2.13-.09.49-.1.96-.44,1.38-.76.16-.12.24-.53.15-.71-.08-.17-.44-.32-.65-.3-1.29.17-2.56.46-3.85.6-1.24.13-2.5.1-3.75.17-.26.01-.51.13-.77.2.1.26.12.65.31.75.49.27,1.04.41,1.57.61Z"/>
    <path class="cls-9" d="M132.79,72.59c-.48.05-1.06.12-1.64.17-.96.07-1.93.11-2.89.19-.2.02-.52.14-.55.28-.05.19.07.47.21.65.45.6,1.01.78,1.78.58.47-.13,1.02,0,1.53.02.38.02.75.08,1.13.09.5,0,1.02.07,1.48-.06.38-.1.86-.38.99-.71.18-.44-.15-.87-.67-.99-.42-.09-.84-.13-1.37-.21Z"/>
  </g>
  <g>
    <path class="cls-9" d="M142.86,149.17c1.05.22,2.1.59,3.16.64,2.33.13,4.66.12,6.99.11.45,0,.93-.21,1.33-.44.58-.34,1-.2,1.48.18.31.25.74.34,1.08.56.6.39.66.76.26,1.37-.14.22-.33.41-.47.63-.38.63-.67,1.21-.21,2.01.5.87.39,1.38-.56,1.86-.62.31-1.18.48-1.94.44-2.02-.1-4.06.02-6.08.1-.56.02-1.12.2-1.66.37-.16.05-.35.37-.33.54.03.24.26.64.39.64,2.17-.08,4.41.44,6.51-.36,1.43-.55,2.75-.24,4.13,0,.68.12.72.6.54,1.08-.16.44-.49.81-.73,1.21-.33.55-.7,1.08-.96,1.66-.26.58-.19,1.1.47,1.45.46.24.93.53.7,1.22-.26.78-.94,1.42-1.55,1.42-.36,0-.72-.02-1.08,0-.89.05-1.71-.11-2.55-.49-1.53-.69-3.16-.46-4.75-.21-.17.03-.3.28-.45.42-.82.76-1.66,1.49-2.45,2.28-.53.53-1.08.03-1.62.11-.06,0-.26-.3-.25-.45.03-.54.11-1.08.18-1.61.01-.12.1-.23.09-.35-.07-.78-.16-1.56-.23-2.34-.01-.14-.01-.28,0-.41.25-1.4.55-2.8.76-4.21.29-1.94.63-3.89.7-5.85.03-.77-.59-1.57-.95-2.35-.2-.43-.54-.84.04-1.25ZM146.36,153.57c2.12.25,4.2.23,6.29-.1.44-.07.88-.17.86-.74-.02-.61-.52-.47-.87-.45-.98.06-1.96.2-2.95.26-.9.06-1.8.03-2.69.09-.5.03-.89.25-.64.95ZM145.75,161.72c.01.09.03.17.04.26.71.18,1.41.49,2.12.5,1.16.03,2.33-.11,3.49-.24.38-.04.76-.27,1.09-.49.15-.1.18-.38.27-.58-.19-.06-.39-.19-.57-.17-.61.06-1.22.22-1.83.26-1.29.08-2.59.09-3.88.17-.25.01-.49.2-.73.3Z"/>
    <path class="cls-9" d="M136.92,159.77c-.27.57-.49,1.21-.85,1.78-.28.45-.72.58-1.3.39-.45-.15-.98-.09-1.48-.06-1.24.07-2.49-.6-3.71.04-.66.35-1.29.76-1.91,1.17-.19.13-.31.36-.48.53-.53.49-1.14.75-1.87.53-.63-.19-.95.08-1.03.72-.76.01-.49-.57-.5-.9-.02-1.1.51-1.95,1.37-2.6.47-.35.57-.81.6-1.38.08-1.94.24-3.87.32-5.81.05-1.22.02-2.45,0-3.68-.01-.85-.16-1.63-.94-2.22-.24-.18-.3-.74-.26-1.11.02-.15.52-.32.81-.35,1.13-.11,2.16.09,3.1.83.64.5,1.45.6,2.3.35.5-.15,1.07-.17,1.59-.12,1.02.1,1.89-.08,2.61-.88.15-.17.55-.25.78-.18.54.17,1.07.43,1.57.71.7.4.98,1.16.54,1.75-.87,1.19-.99,2.55-1.13,3.93-.09.93-.22,1.85-.28,2.78-.03.52-.3.67-.74.68-.24,0-.51-.07-.72.03-.39.18-1.03.42-1.05.69-.04.52-.01,1.19.71,1.47.62.23,1.2.57,1.94.92ZM129.22,150.28c-.21,1.3-.21,1.31,1.02,1.29,1.14-.02,2.29-.07,3.43-.14.2-.01.45-.16.56-.33.06-.09-.09-.4-.23-.51-.19-.15-.45-.29-.68-.3-1.37-.03-2.74-.01-4.1-.01ZM128.92,157.82c-.34.45.09.68.54.84.94.35,1.88.43,2.8-.07q.06-.95-.84-.95c-.55,0-1.11-.01-1.66.01-.24,0-.47.09-.84.17ZM134.2,153.85c-.12-.03-.26-.1-.39-.08-1.23.12-2.46.25-3.69.41-.22.03-.41.22-.62.33.22.08.43.23.65.24.99.03,1.99-.02,2.98.02.62.02,1.13,0,1.06-.91Z"/>
    <path class="cls-9" d="M148.39,145.94c2.02,0,4.03,0,6.05,0,.55,0,1.09.11,1.64.13.81.03,1.56.03,2.31-.51.58-.41,1.41-.47,2.15-.6.12-.02.39.33.46.55.25.77.42,1.57.65,2.34.14.45.38.87.53,1.32.51,1.52.92,3.04.34,4.64-.17.48-.41.7-.94.66-.37-.02-.75.1-1.13.17-.62.12-.99-.17-1.01-.8,0-.17-.05-.36.01-.5.52-1.29,0-2.6.13-3.9.06-.57-.21-.96-.84-1.01-.88-.07-1.76-.21-2.63-.2-.45,0-.89.42-1.34.42-1.01,0-2.02-.12-3.02-.2-.71-.06-1.42-.18-2.13-.19-1.49-.03-2.99-.04-4.48,0-.8.02-1.6.17-2.39.29-.13.02-.27.19-.34.32-.45.87-.92,1.73-1.3,2.63-.19.45-.18.98-.34,1.44-.19.59-1,1.04-1.55.77-.28-.13-.54-.61-.54-.94-.01-1.13,0-2.24.61-3.33.67-1.21,1.08-2.56,1.58-3.85.06-.15,0-.35-.03-.53-.05-.37-.1-.73-.05-1.14.69.2,1.24.47,1.45,1.11.29.88.73,1.36,1.76,1.11.73-.18,1.51-.16,2.26-.32.27-.06.55-.31.73-.55.4-.53.7-1.14,1.11-1.66.25-.32.34-.6.07-.88-.43-.45-.9-.85-1.35-1.28-.17-.16-.34-.31-.52-.48.26-.21.41-.38.59-.48.48-.24.88-.45,1.51-.09.64.36,1.48.43,2.23.47.86.04,1.4.47,1.42,1.34.03,1.28-.12,1.34-1.37,1.86-.85.36-1.58,1.02-2.36,1.55.02.1.05.19.07.29Z"/>
    <path class="cls-9" d="M132.36,137.53c.46.16.82.23,1.11.41.19.11.39.39.39.59-.01.81-.1,1.62-.17,2.61.81-.13,1.65-.27,2.48-.41.07-.01.14-.08.2-.07,1,.16,2.01.28,2.98.54.36.09.63.52.98.82-.31.27-.54.44-.74.64-1.47,1.38-1.51,1.35-3.31.42-.84-.43-1.77-.7-2.67-1-.28-.09-.7-.14-.92,0-1.73,1.18-3.87,1.45-5.65,2.55-.38.23-.98.09-1.47.17-.39.06-.76.22-1.15.27-.94.12-1.89.28-2.83.27-.53,0-1.29.22-1.57-.53-.29-.78.2-2.18.84-2.59.61-.39,1.26-.54,1.99-.63,2.31-.28,4.63-.6,6.91-1.04.75-.15,1.43-.73,2.12-1.13.08-.05.07-.26.1-.39.11-.47.23-.94.36-1.48Z"/>
    <path class="cls-9" d="M131.54,146.55c-.82-.15-1.69-.29-2.55-.5-.12-.03-.27-.43-.2-.56.08-.18.35-.33.56-.39.99-.29,1.99-.57,3-.81.26-.06.56.03.83.07.64.08,1.28.13,1.9.27.2.04.53.36.5.46-.1.35-.28.9-.53.95-1.14.25-2.31.35-3.52.51Z"/>
  </g>
  <g>
    <path class="cls-9" d="M149.68,19.03c.05-.95.01-1.93.2-2.86.13-.62.53-1.21.91-1.75.4-.56,1.3-.66,2.16-.2.65.35,1.2.19,1.76-.1.17-.08.25-.34.37-.51-.18-.08-.35-.21-.53-.23-1.61-.18-3.22-.33-4.83-.5-.07,0-.14-.03-.21-.02-1.46.24-2.86-.25-4.3-.35-.29-.02-.66.2-.9.41-.28.25-.42.38-.67-.03-.32-.53-.86-.31-1.23-.15-.24.1-.5.67-.41.87.12.26.6.54.89.52,1.09-.09,2.17-.33,3.26-.48.9-.12,1.38.26,1.74,1.11.51,1.18.77,2.39.71,3.68-.06,1.26-.36,2.41-1.53,3.11-.18.11-.45.07-.69.08-.39.01-.79-.01-1.18,0-.87.04-1.73.11-2.6.15-1.58.06-3.16.1-4.73.17-.76.03-1.63.81-1.67,1.58-.03.61.04,1.24.16,1.84.11.53,1.02.78,1.5.5.45-.26.92-.5,1.41-.68,1.6-.56,3.2-1.15,4.93-1.16.21,0,.41-.03.62-.04,1.27-.04,2.54-.09,3.81-.11.43,0,.87.04,1.3.08.43.05.86.17,1.29.19,2.18.12,4.21.78,6.19,1.62,1,.43,1.98.92,3,1.3.71.26,1.25-.16,1.61-.75.29-.49.5-1.02.75-1.53.11-.23.22-.46.37-.66.58-.83.57-.85-.46-1-2.15-.32-4.28-.73-6.44-.93-.83-.08-1.68-.17-2.58-.04-1.05.15-2.2-.17-3.27-.44-.29-.08-.54-.7-.63-1.12-.11-.51-.03-1.05-.03-1.58-.02,0-.04,0-.07,0Z"/>
    <path class="cls-9" d="M130.41,21.19c-.03-.56-.05-1.11-.1-1.67-.04-.46-.02-.83.59-.85.15,0,.29-.19.45-.27.11-.06.3-.19.34-.15.92.78,2.07.4,3.1.62.11.02.22.02.45.05,0-.68.05-1.34-.01-1.98-.11-1.04.17-1.95.72-2.81.25-.4.4-.83-.05-1.17-.45-.34-.66-1.02-1.59-.61-.75.33-1.74.17-2.63.13-.61-.02-1.24-.13-1.82-.34-.33-.12-.72-.47-.8-.79-.18-.74-.2-1.53-.29-2.39-.31-.01-.72-.09-1.12-.04-.59.08-.57.55-.51,1.01.05.42.15.87.06,1.27-.22,1-1.21,1.03-1.93,1.31-.65.25-1.39.29-2.09.41-.25.04-.51.09-.75.07-.89-.09-1.35.53-1.07,1.4.57,1.75.89,3.55.85,5.41,0,.38.22.77.34,1.16.21-.31.52-.6.61-.94.2-.8.73-1.14,1.47-1.22.65-.07,1.32-.12,1.97-.08.64.05.88.45.66,1.07-.31.84-.7,1.64-1.05,2.46-.08.19-.09.4-.14.61.19-.1.45-.16.56-.32.54-.74,1.05-1.5,1.55-2.26.32-.48.81-.5,1.16-.02.16.22.31.45.49.66.1.12.23.21.34.32.08-.02.15-.04.23-.06ZM129.04,15.18s.02,0,.04,0c0-.25-.02-.51,0-.76.05-.48.31-.85.8-.9.86-.09,1.73-.14,2.6-.14.85,0,1.38.55,1.36,1.4-.02.71-.05,1.43-.21,2.12-.06.29-.43.68-.7.72-.97.13-1.96.16-2.94.14-.26,0-.68-.27-.73-.48-.15-.68-.16-1.39-.23-2.09ZM123.3,15.14c-.16-.55.04-.91.49-1.03.85-.23,1.71-.4,2.57-.56.62-.12,1.05.19,1.08.82.04.92,0,1.85,0,2.78,0,.46-.33.57-.7.6-.82.06-1.64.12-2.46.15-.56.02-.94-.27-.97-.84-.04-.65,0-1.31,0-1.91Z"/>
    <path class="cls-9" d="M130.39,21.8c.32.76.56,1.58.99,2.28.47.76.14,1.16-.55,1.28-.37.07-.77.04-1.14-.03-.63-.13-1.04-.07-1.58.38.47.58,1.08.57,1.73.5.88-.09,1.77-.29,2.65.05.35.14.72.26,1.09.35.15.04.44,0,.47-.07.07-.17.08-.44-.01-.57-.46-.59-.97-1.14-1.46-1.71-.19-.22-.38-.46-.54-.7-.45-.64-.89-1.28-1.34-1.92-.1.05-.2.11-.3.16Z"/>
    <path class="cls-9" d="M125.68,24.02c-1.31.3-2.07,1.62-1.6,2.73.07.17.38.41.47.37.53-.24,1.03-.56,1.54-.85.31-.18.62-.37,1.06-.63-.91-.2-1.67-.52-1.47-1.62ZM125.94,26.18c-.41.26-.78.49-1.2.16-.08-.06-.06-.41,0-.44.41-.19.82-.25,1.2.28Z"/>
  </g>
  <g class="cls-1">
    <path class="cls-9" d="M124.18,29.62c.15,0,.28.04.41.13.12.09.19.2.19.34,0,.21-.08.35-.26.44-.06.02-.16.06-.3.12s-.23.1-.27.11c-.04.02-.11.06-.22.12s-.18.11-.2.14c-.03.03-.08.09-.14.16s-.11.14-.13.21c-.02.07-.04.16-.08.27s-.05.23-.06.37c0,.13-.01.27-.01.43v9.17c0,1.09.27,1.82.8,2.18.07.05.2.13.38.22s.32.18.42.26c.09.08.14.18.14.3,0,.24-.18.39-.55.44-.02,0-.15-.02-.38-.04-.23-.02-.51-.05-.83-.08s-.61-.04-.84-.04-.51.01-.81.04-.56.05-.77.08c-.21.03-.33.04-.35.04-.38-.05-.56-.2-.56-.44,0-.12.04-.22.14-.3.09-.08.23-.16.42-.26s.32-.17.38-.22c.53-.37.8-1.09.8-2.18v-9.17c0-.16,0-.3,0-.43,0-.13-.02-.25-.06-.37s-.06-.2-.08-.27c-.02-.07-.06-.14-.13-.21s-.11-.12-.14-.16c-.02-.03-.09-.08-.2-.14s-.18-.1-.22-.12c-.04-.02-.13-.05-.27-.11-.14-.06-.24-.1-.3-.12-.18-.09-.27-.23-.27-.44,0-.14.06-.25.19-.34.13-.09.26-.13.41-.13.23,0,.55.02.96.06.42.05.72.06.93.06s.52-.02.94-.06c.43-.04.74-.06.93-.06Z"/>
    <path class="cls-9" d="M129.82,33.16c.67,0,1.25.3,1.74.89s.73,1.37.73,2.3c0,.71-.13,1.33-.4,1.86-.27.53-.62.89-1.06,1.08-.15.05-.16.15-.03.29.39.48.88,1.32,1.49,2.52.61,1.19,1.06,1.89,1.37,2.08.1.07.22.14.34.21.13.07.22.12.3.16s.14.08.21.13.11.1.14.16c.03.05.04.12.04.21,0,.6-.4.91-1.19.91-.21,0-.47-.08-.77-.25-.3-.17-.55-.4-.76-.72-.28-.43-.65-1.08-1.08-1.95s-.79-1.51-1.05-1.92c-.36-.59-.67-.88-.94-.88h-.17s-.03.05-.05.14c-.02.1-.03.27-.03.51v.75c0,.85.06,1.4.17,1.64.08.19.21.34.37.44.06.04.14.08.24.14s.19.12.26.17c.07.05.14.11.21.17.07.06.13.13.17.19s.06.14.06.21c0,.24-.18.39-.55.44-.02,0-.12-.02-.3-.04-.18-.02-.4-.05-.66-.08s-.52-.04-.76-.04-.48.01-.72.04c-.25.03-.44.05-.6.08-.15.03-.24.04-.26.04-.37-.05-.56-.2-.56-.44,0-.07.02-.14.06-.21.04-.07.09-.13.17-.19s.14-.12.21-.17c.07-.05.15-.11.26-.17s.18-.11.24-.14c.06-.03.11-.08.16-.13.04-.05.08-.1.12-.14.03-.05.06-.1.09-.17.03-.07.05-.13.07-.17.02-.04.03-.12.04-.22.01-.1.02-.17.03-.21,0-.03.01-.11.02-.24,0-.13.01-.21.01-.25v-6.13c0-.16,0-.29-.01-.4,0-.11,0-.22,0-.31s-.01-.18-.04-.26c-.03-.08-.04-.14-.05-.19,0-.05-.04-.1-.09-.14-.06-.05-.09-.08-.1-.11-.01-.02-.06-.06-.14-.1-.08-.04-.14-.07-.18-.09-.03-.02-.11-.05-.23-.1-.12-.05-.21-.09-.26-.1-.18-.09-.27-.27-.27-.55,0-.14.06-.25.19-.34.12-.08.26-.13.41-.13.23,0,.49.02.79.06.3.05.56.06.76.06.19,0,.51-.03.94-.09.43-.06.75-.09.97-.09ZM128.62,37.85c0,.62.19.94.56.94.41,0,.76-.23,1.05-.69.3-.46.45-1,.45-1.62,0-.57-.14-1.04-.43-1.42-.29-.37-.64-.56-1.03-.56-.17,0-.31.08-.43.23s-.17.37-.17.62v2.49Z"/>
    <path class="cls-9" d="M136.8,30.73c.15,0,.28.05.41.13.12.09.19.2.19.34,0,.28-.08.46-.26.55-.55.24-.86.41-.94.52-.15.17-.22.6-.22,1.3v5.58c0,.85.06,1.4.17,1.64.08.19.21.34.37.44.06.04.14.08.24.14s.19.12.26.17c.07.05.14.11.21.17.07.06.13.13.17.19s.06.14.06.21c0,.24-.18.39-.55.44-.02,0-.12-.02-.3-.04-.18-.02-.4-.05-.66-.08s-.52-.04-.76-.04-.48.01-.72.04c-.25.03-.44.05-.6.08-.15.03-.24.04-.26.04-.37-.05-.56-.2-.56-.44,0-.07.02-.14.06-.21.04-.07.09-.13.17-.19s.14-.12.21-.17c.07-.05.15-.11.26-.17s.18-.11.24-.14c.06-.03.11-.08.16-.13.04-.05.08-.1.12-.14.03-.05.06-.1.09-.17.03-.07.05-.13.07-.17.02-.04.03-.12.04-.22.01-.1.02-.17.03-.21,0-.03.01-.11.02-.24,0-.13.01-.21.01-.25v-6.13c0-.16,0-.29-.01-.4,0-.11,0-.22,0-.31s-.01-.18-.04-.26c-.03-.08-.04-.14-.05-.19,0-.05-.04-.1-.09-.14-.06-.05-.09-.08-.1-.11-.01-.02-.06-.06-.14-.1-.08-.04-.14-.07-.18-.09-.03-.02-.11-.05-.23-.1-.12-.05-.21-.09-.26-.1-.18-.09-.27-.27-.27-.55,0-.14.06-.25.19-.34.12-.08.26-.13.41-.13.23,0,.49.02.79.06.3.05.56.06.76.06s.46-.02.77-.06c.31-.04.56-.06.76-.06Z"/>
    <path class="cls-9" d="M140.52,42.86c-.24,0-.48.01-.72.04-.25.03-.44.05-.6.08-.15.03-.24.04-.26.04-.37-.05-.56-.2-.56-.44,0-.07.02-.14.06-.21.04-.07.09-.13.17-.19s.14-.12.21-.17c.07-.05.15-.11.26-.17s.18-.11.24-.14c.06-.03.11-.08.16-.13.04-.05.08-.1.12-.14.03-.05.06-.1.09-.17.03-.07.05-.13.07-.17.02-.04.03-.12.04-.22.01-.1.02-.17.03-.21,0-.03.01-.11.02-.24,0-.13.01-.21.01-.25v-6.13c0-.16,0-.29-.01-.4,0-.11,0-.22,0-.31s-.01-.18-.04-.26c-.03-.08-.04-.14-.05-.19,0-.05-.04-.1-.09-.14-.06-.05-.09-.08-.1-.11-.01-.02-.06-.06-.14-.1-.08-.04-.14-.07-.18-.09-.03-.02-.11-.05-.23-.1-.12-.05-.21-.09-.26-.1-.18-.09-.27-.27-.27-.55,0-.14.06-.25.19-.34.12-.08.26-.13.41-.13.32,0,.85-.04,1.6-.13.75-.09,1.36-.13,1.82-.13.77,0,1.51.17,2.21.52s1.29.91,1.78,1.69c.49.78.73,1.71.73,2.78,0,2.01-.42,3.68-1.27,5.03s-1.9,2.01-3.16,2.01c-.18,0-.57-.02-1.16-.05-.59-.03-.95-.05-1.07-.05ZM141.3,33.92v5.87c0,.56.14,1.01.42,1.38s.69.54,1.23.54c.81,0,1.43-.49,1.87-1.49s.66-2.18.66-3.55c0-1.23-.28-2.26-.85-3.1-.57-.84-1.25-1.26-2.04-1.26-.51,0-.85.11-1.02.32-.17.22-.25.65-.25,1.29Z"/>
    <path class="cls-9" d="M149.76,42.39c-.15,0-.42.03-.82.08-.4.05-.66.08-.76.08-.11,0-.23-.05-.37-.13-.13-.09-.2-.19-.2-.31,0-.07.02-.14.06-.21.04-.07.09-.13.17-.19s.14-.12.21-.17c.07-.05.15-.11.26-.17s.18-.11.24-.14c.06-.03.11-.08.16-.13.04-.05.08-.1.12-.14.03-.05.06-.1.09-.17.03-.07.05-.13.07-.17.02-.04.03-.12.04-.22.01-.1.02-.17.03-.21,0-.03.01-.11.02-.24,0-.13.01-.21.01-.25v-6.13c0-.16,0-.29-.01-.4,0-.11,0-.22,0-.31s-.01-.18-.04-.26c-.03-.08-.04-.14-.05-.19,0-.05-.04-.1-.09-.14-.06-.05-.09-.08-.1-.11-.01-.02-.06-.06-.14-.1-.08-.04-.14-.07-.18-.09-.03-.02-.11-.05-.23-.1-.12-.05-.21-.09-.26-.1-.18-.09-.27-.27-.27-.55,0-.14.06-.25.19-.34.12-.08.26-.13.41-.13.23,0,.49.02.79.05.3.03.56.05.76.05.19,0,.72-.02,1.58-.05s1.41-.05,1.66-.05c.14,0,.22.02.25.05.03.03.06.18.11.44.07.31.1.73.1,1.27s-.1.8-.29.8c-.23,0-.42-.29-.56-.88-.08-.31-.26-.47-.53-.47h-1.19c-.18,0-.3.04-.34.12-.04.08-.07.25-.07.51v2.23c0,.69.09,1.04.27,1.04h.85c.22,0,.39-.09.52-.26.13-.17.24-.35.32-.52.08-.17.16-.26.26-.26.13,0,.2.58.2,1.74,0,.67-.01,1.14-.03,1.39-.02.25-.09.38-.2.38-.07,0-.13-.06-.2-.18-.06-.12-.12-.25-.17-.39-.05-.14-.14-.27-.26-.39-.13-.12-.28-.18-.46-.18h-.78c-.1,0-.17,0-.19.02-.02,0-.05.08-.08.21-.03.13-.04.34-.04.64v1.77c0,.75.2,1.12.6,1.12h1.43c.2,0,.41-.39.63-1.17,0-.02.01-.05.03-.1l.03-.16c.09-.38.23-.57.42-.57.25,0,.37.32.37.96,0,.45-.09,1.01-.27,1.68s-.34,1-.48,1c-.37,0-.96-.03-1.76-.08-.79-.05-1.4-.08-1.81-.08Z"/>
    <path class="cls-9" d="M158.28,30.29c.18,0,.34.03.48.08.14.05.28.12.42.21.14.09.26.15.35.18.26.12.39.3.39.54,0,1.23-.09,1.84-.27,1.84-.2,0-.36-.16-.48-.47-.22-.59-.62-.88-1.23-.88-.26,0-.48.13-.67.38-.19.25-.28.57-.28.95,0,.52.12.94.36,1.25.24.31.65.7,1.24,1.17.7.56,1.18,1.1,1.43,1.62s.37,1.26.37,2.19c0,1.09-.32,1.93-.98,2.52s-1.4.88-2.26.88c-.41,0-.78-.1-1.1-.3-.32-.2-.51-.4-.55-.61-.16-.6-.24-1.26-.24-1.95,0-.29.08-.44.26-.44.1,0,.25.17.43.51.18.34.42.68.71,1.03s.62.52.99.52c.31,0,.56-.17.76-.51.2-.33.3-.75.3-1.23,0-.33-.05-.63-.14-.91-.1-.28-.25-.54-.47-.78-.22-.24-.4-.43-.54-.56-.14-.13-.36-.31-.65-.53-1.02-.76-1.53-1.88-1.53-3.35,0-1.02.29-1.83.88-2.44.59-.6,1.26-.91,2.02-.91Z"/>
    <path class="cls-9" d="M123.75,46.38c.27,0,.53.06.81.18s.45.25.53.39c.25.4.42.7.51.9.09.2.14.39.14.56,0,.43-.05.86-.14,1.29-.09.42-.17.64-.24.64s-.12-.04-.15-.12c-.03-.08-.08-.26-.15-.53-.07-.28-.13-.52-.2-.73-.27-.85-.68-1.27-1.25-1.27s-1.01.5-1.35,1.51c-.34,1.01-.52,2.18-.52,3.51s.16,2.45.48,3.45.75,1.49,1.29,1.49c.39,0,.82-.46,1.29-1.38.06-.11.13-.28.21-.52s.15-.45.21-.63c.06-.17.11-.26.16-.26.13,0,.2.21.2.63,0,1.3-.14,2.08-.42,2.34-.74.69-1.37,1.04-1.9,1.04-.77,0-1.42-.59-1.96-1.77-.54-1.18-.81-2.58-.81-4.19,0-1.79.32-3.33.98-4.61.65-1.28,1.41-1.93,2.29-1.93Z"/>
    <path class="cls-9" d="M128.17,58.51c-.11,0-.31.03-.6.08-.29.05-.48.08-.55.08-.08,0-.17-.05-.27-.13-.09-.09-.14-.19-.14-.31,0-.07.01-.14.04-.21.03-.07.07-.13.12-.19s.11-.12.16-.17c.05-.05.11-.11.19-.17s.13-.11.17-.14c.04-.03.08-.08.11-.13.03-.05.06-.1.09-.14.02-.05.05-.1.07-.17.02-.07.04-.13.05-.17.01-.04.02-.12.03-.22,0-.1.02-.17.02-.21,0-.03,0-.11.01-.24,0-.13,0-.21,0-.25v-6.15c0-.16,0-.29,0-.4,0-.11,0-.22,0-.31s0-.18-.03-.26c-.02-.08-.03-.14-.04-.19,0-.05-.03-.1-.07-.14-.04-.05-.07-.08-.07-.11,0-.02-.04-.06-.11-.1-.06-.04-.11-.07-.13-.09-.02-.02-.08-.05-.17-.1-.09-.05-.15-.09-.19-.1-.13-.09-.2-.27-.2-.55,0-.14.04-.25.14-.34.09-.08.19-.13.3-.13.17,0,.36.02.58.05.22.03.41.05.55.05.14,0,.52-.02,1.15-.05s1.03-.05,1.21-.05c.1,0,.16.02.18.05.02.03.05.18.08.44.05.31.07.74.07,1.28s-.07.8-.21.8c-.17,0-.3-.29-.41-.88-.06-.31-.19-.47-.38-.47h-.87c-.13,0-.22.04-.25.12-.03.08-.05.25-.05.51v2.24c0,.69.07,1.04.2,1.04h.62c.16,0,.28-.09.38-.26.1-.17.17-.35.23-.52.06-.17.12-.26.19-.26.1,0,.15.58.15,1.75,0,.67,0,1.14-.02,1.39-.02.25-.07.38-.15.38-.05,0-.1-.06-.14-.18-.04-.12-.09-.25-.12-.39-.04-.14-.1-.27-.19-.39-.09-.12-.2-.18-.34-.18h-.57c-.07,0-.12,0-.14.02-.02,0-.04.08-.06.21-.02.13-.03.34-.03.64v1.77c0,.75.14,1.12.43,1.12h1.04c.15,0,.3-.39.46-1.17,0-.02,0-.05.02-.1l.02-.16c.07-.38.17-.57.31-.57.18,0,.27.32.27.96,0,.45-.07,1.01-.2,1.68s-.25,1-.35,1c-.27,0-.7-.03-1.28-.08-.58-.05-1.02-.08-1.32-.08Z"/>
    <path class="cls-9" d="M136.89,49.66c0-.92-.22-1.53-.65-1.82-.13-.09-.2-.27-.2-.55,0-.31.11-.47.33-.47.06,0,.19.02.4.06.21.05.37.06.48.06.11,0,.25-.02.42-.06.17-.04.29-.06.37-.06.24,0,.36.16.36.47s-.06.48-.19.55c-.17.1-.31.32-.43.64-.12.32-.18.7-.18,1.13v4.66c0,.31.01.8.04,1.47.03.67.04,1.09.04,1.26,0,1.25-.06,1.87-.17,1.87-.12,0-.27-.14-.43-.43s-.4-.84-.71-1.66l-2.17-5.7c-.02-.05-.05,0-.06.13-.02.22-.04.56-.04,1.01v3.02c0,.85.04,1.4.12,1.64.06.19.15.34.27.44.12.12.21.21.27.27s.11.15.17.26c.06.11.09.23.09.35,0,.24-.13.39-.4.44-.02,0-.06-.02-.14-.04-.08-.02-.19-.05-.34-.08-.15-.03-.31-.04-.48-.04s-.34.01-.5.04c-.16.03-.28.05-.37.08-.09.03-.15.04-.16.04-.27-.05-.41-.2-.41-.44,0-.07.01-.14.04-.21s.07-.13.12-.19.11-.12.16-.17c.05-.05.11-.11.18-.17.07-.06.13-.11.17-.14.04-.03.08-.08.11-.13.03-.05.06-.1.09-.14.02-.05.05-.1.07-.17.02-.07.04-.13.05-.17.01-.04.02-.12.03-.22s.01-.17.02-.21c0-.03,0-.11.01-.24,0-.13,0-.21,0-.25v-5.39c0-.87-.06-1.42-.19-1.67-.18-.38-.43-.68-.76-.91-.13-.09-.2-.27-.2-.55,0-.14.04-.25.14-.34.09-.08.19-.13.3-.13.17,0,.36.02.59.06.23.05.41.06.54.06.18,0,.44.43.77,1.3l2.19,5.67s.04.1.07.18c.08.12.13.11.14-.03v-4.43Z"/>
    <path class="cls-9" d="M141.17,49.69c0-.52-.02-.85-.06-.98-.04-.13-.11-.19-.2-.19h-.99c-.09,0-.22.24-.39.72s-.27.72-.32.72c-.2,0-.3-.23-.3-.68,0-.71.04-1.35.13-1.9.09-.56.19-.84.32-.84.05,0,.18.11.4.34.22.22.44.34.67.34h2.67c.26,0,.53-.12.82-.37.29-.24.45-.37.47-.37.17,0,.26.26.26.76,0,.24-.05.7-.16,1.36s-.2.99-.28.99c-.07,0-.16-.18-.27-.53-.12-.35-.25-.53-.4-.53h-.94c-.12,0-.19,0-.22.03-.03.02-.06.1-.09.26s-.04.43-.04.84v5.62c0,.85.04,1.4.12,1.64.06.19.15.34.27.44.04.04.1.08.17.14.07.06.14.12.19.17.05.05.1.11.16.17s.1.13.12.19.04.14.04.21c0,.24-.13.39-.4.44-.02,0-.09-.02-.22-.04-.13-.02-.29-.05-.48-.08-.19-.03-.38-.04-.55-.04s-.35.01-.53.04-.32.05-.43.08c-.11.03-.18.04-.19.04-.27-.05-.41-.2-.41-.44,0-.07.02-.14.04-.21s.07-.13.12-.19.11-.12.16-.17c.05-.05.11-.11.18-.17.07-.06.13-.11.17-.14.04-.03.08-.08.11-.13.03-.05.06-.1.09-.14.02-.05.05-.1.07-.17.02-.07.04-.13.05-.17.01-.04.02-.12.03-.22s.01-.17.02-.21c0-.03,0-.11.01-.24,0-.13,0-.21,0-.25v-6.12Z"/>
    <path class="cls-9" d="M148.14,46.82c.11,0,.21.05.3.13.09.09.14.2.14.34,0,.28-.06.46-.19.55-.4.24-.62.42-.68.52-.11.18-.16.61-.16,1.3v5.6c0,.85.04,1.4.12,1.64.06.19.15.34.27.44.04.04.1.08.17.14s.14.12.19.17c.05.05.1.11.16.17.05.06.09.13.12.19s.04.14.04.21c0,.24-.13.39-.4.44-.02,0-.09-.02-.22-.04-.13-.02-.29-.05-.48-.08s-.38-.04-.55-.04-.35.01-.53.04c-.18.03-.32.05-.44.08-.11.03-.17.04-.19.04-.27-.05-.41-.2-.41-.44,0-.07.01-.14.04-.21.03-.07.07-.13.12-.19s.11-.12.16-.17c.05-.05.11-.11.19-.17s.13-.11.17-.14c.04-.03.08-.08.11-.13.03-.05.06-.1.09-.14.02-.05.05-.1.07-.17.02-.07.04-.13.05-.17.01-.04.02-.12.03-.22,0-.1.02-.17.02-.21,0-.03,0-.11.01-.24,0-.13,0-.21,0-.25v-6.15c0-.16,0-.29,0-.4,0-.11,0-.22,0-.31s0-.18-.03-.26c-.02-.08-.03-.14-.04-.19,0-.05-.03-.1-.07-.14-.04-.05-.07-.08-.07-.11,0-.02-.04-.06-.11-.1-.06-.04-.11-.07-.13-.09-.02-.02-.08-.05-.17-.1-.09-.05-.15-.09-.19-.1-.13-.09-.2-.27-.2-.55,0-.14.04-.25.14-.34.09-.08.19-.13.3-.13.17,0,.36.02.58.06.22.05.41.06.55.06s.34-.02.57-.06c.23-.04.41-.06.55-.06Z"/>
    <path class="cls-9" d="M149.91,49.66c0-.16,0-.29,0-.4,0-.11,0-.22,0-.31s0-.18-.03-.26c-.02-.08-.03-.14-.04-.19,0-.05-.03-.1-.07-.14-.04-.05-.07-.08-.07-.11,0-.02-.04-.06-.11-.1-.06-.04-.11-.07-.13-.09-.02-.02-.08-.05-.17-.1-.09-.05-.15-.09-.19-.1-.13-.09-.2-.27-.2-.55,0-.14.04-.25.14-.34.09-.08.19-.13.3-.13.17,0,.36.02.58.06.22.05.41.06.55.06s.34-.02.57-.06c.23-.04.41-.06.55-.06.11,0,.21.05.3.13.09.09.14.2.14.34,0,.28-.06.46-.19.55-.4.24-.62.42-.68.52-.11.18-.16.61-.16,1.3v4.3c0,.95.15,1.78.47,2.49.31.7.68,1.05,1.12,1.05.51,0,.91-.31,1.18-.92.27-.61.41-1.45.41-2.51v-4.24c0-.43-.07-.84-.21-1.21s-.28-.6-.43-.69c-.17-.1-.26-.31-.26-.63,0-.14.04-.25.14-.34.09-.08.19-.13.3-.13.07,0,.19.02.35.06.16.05.28.06.37.06.08,0,.22-.02.42-.06.2-.04.34-.06.42-.06.11,0,.21.05.3.13.09.09.14.2.14.34,0,.3-.07.48-.21.55-.28.15-.47.38-.57.66-.09.29-.14.69-.14,1.21v3.59c0,1.58-.23,2.91-.7,4-.47,1.09-1.06,1.63-1.78,1.63s-1.33-.56-1.75-1.67c-.42-1.11-.63-2.46-.63-4.03v-3.57Z"/>
    <path class="cls-9" d="M161.64,57.42c.07-.03.12-.13.14-.3.03-.16.04-.32.04-.45s0-.31-.01-.52c0-.21-.01-.32-.01-.34l-.16-4.17c-.02-.27-.04-.4-.09-.36-.02,0-.05.06-.07.18l-.93,3.85c-.02.05-.09.38-.21.98-.12.6-.23,1.05-.32,1.37-.1.31-.18.47-.27.47-.03,0-.06,0-.09-.03-.03-.02-.06-.05-.09-.09-.03-.05-.05-.09-.07-.13-.02-.04-.04-.1-.07-.18-.02-.08-.05-.14-.06-.2-.02-.05-.04-.13-.07-.24-.03-.11-.05-.2-.06-.25-.01-.05-.03-.14-.06-.27-.03-.13-.05-.22-.06-.27l-1.17-5.31c-.06-.26-.1-.18-.12.23v.29s-.1,3.36-.1,3.36c-.02.48.02.96.1,1.43.09.47.2.77.33.88.04.04.1.09.18.16.08.07.14.13.19.17.05.04.1.1.16.16s.1.13.12.19.04.14.04.21c0,.24-.13.39-.4.44-.02,0-.09-.02-.22-.04-.13-.02-.29-.05-.48-.08s-.38-.04-.55-.04-.34.01-.51.04c-.17.03-.3.05-.4.08-.1.03-.16.04-.18.04-.27-.05-.41-.2-.41-.44,0-.33.21-.63.62-.89.42-.29.65-.8.68-1.51l.3-5.23c.03-.57.03-1.02-.01-1.34-.04-.32-.09-.53-.14-.61s-.14-.17-.27-.26c0-.02-.29-.2-.85-.55-.13-.09-.2-.27-.2-.55,0-.14.04-.25.14-.34.09-.08.19-.13.3-.13.17,0,.45.02.85.06.4.05.68.06.82.06.22,0,.38.18.46.52l1.36,6.04c.19.82.41.67.66-.42l1.23-5.5c.1-.43.3-.65.6-.65.05,0,.22-.02.5-.06.28-.04.51-.06.66-.06.11,0,.21.05.3.13.09.09.14.2.14.34,0,.28-.06.46-.19.55-.19.12-.32.2-.39.23-.07.03-.15.1-.26.21-.11.1-.18.2-.21.3s-.06.22-.08.39c-.02.17-.03.36-.02.59l.16,4.61c.04,1.21.1,2.01.19,2.38s.22.63.42.77c.36.24.53.55.53.91,0,.24-.13.39-.4.44-.02,0-.06-.02-.14-.04-.08-.02-.19-.05-.34-.08s-.3-.04-.48-.04-.35.01-.53.04c-.18.03-.32.05-.44.08-.11.03-.17.04-.19.04-.27-.05-.41-.2-.41-.44,0-.31.18-.58.55-.81Z"/>
  </g>
  <g class="cls-1">
    <path class="cls-9" d="M118.75,108.47v4.42c0,.73.03,1.32.08,1.75s.17.75.35.97c.05.06.13.16.26.27.13.12.22.23.29.32.06.1.09.22.09.37,0,.3-.12.48-.37.55-.02,0-.09-.02-.23-.05-.14-.03-.31-.06-.51-.09s-.38-.05-.55-.05-.35.01-.55.05c-.21.03-.38.07-.52.09-.14.03-.22.05-.24.05-.26-.07-.38-.25-.38-.55,0-.15.03-.27.09-.37.06-.09.16-.2.29-.32s.22-.21.26-.27c.36-.45.55-1.36.55-2.72v-11.4c0-.19,0-.37,0-.53,0-.17-.02-.31-.04-.45-.02-.14-.04-.25-.05-.34-.01-.09-.04-.17-.09-.26-.05-.09-.08-.15-.09-.19-.02-.04-.06-.1-.14-.18s-.12-.12-.15-.15c-.03-.02-.09-.07-.19-.14-.1-.08-.16-.12-.2-.15-.12-.11-.19-.29-.19-.55,0-.17.04-.31.13-.42.08-.11.18-.16.28-.16.16,0,.38.03.66.08.28.06.5.08.64.08s.34-.02.59-.08c.25-.05.45-.08.58-.08.1,0,.19.05.28.16.08.11.13.25.13.42,0,.26-.06.44-.18.55-.39.3-.62.55-.7.74-.1.28-.15.83-.15,1.65v4.78c0,.24.05.35.15.35h3.09c.1,0,.15-.14.15-.42v-4.72c0-.86-.05-1.41-.14-1.63-.09-.22-.33-.48-.7-.76-.12-.11-.19-.29-.19-.55,0-.17.04-.31.13-.42.08-.11.18-.16.28-.16.16,0,.36.03.6.08.24.06.44.08.58.08s.36-.02.65-.08c.29-.05.5-.08.64-.08.1,0,.19.05.28.16.08.11.13.25.13.42,0,.26-.06.44-.18.55-.04.02-.11.07-.2.15-.1.08-.16.12-.19.14-.03.02-.08.07-.15.15s-.12.14-.14.18-.05.11-.1.19c-.05.09-.08.17-.09.26-.01.09-.03.2-.05.34s-.04.29-.04.45c0,.16,0,.34,0,.53v11.4c0,1.36.18,2.26.55,2.72.05.06.13.16.26.27s.22.23.29.32c.06.1.09.22.09.37,0,.3-.12.48-.37.55-.02,0-.1-.02-.26-.05-.16-.03-.35-.06-.57-.09-.22-.03-.41-.05-.58-.05s-.34.01-.52.05-.34.07-.47.09c-.12.03-.19.05-.21.05-.26-.07-.38-.25-.38-.55,0-.15.03-.27.09-.37.06-.09.16-.2.29-.32s.22-.21.26-.27c.18-.22.29-.54.35-.97s.08-1.01.08-1.75v-4.36c0-.24-.05-.35-.16-.35h-3.08c-.1,0-.15.09-.15.29Z"/>
    <path class="cls-9" d="M126.49,116.94c-.1,0-.29.03-.56.09-.28.07-.45.1-.52.1-.08,0-.16-.06-.25-.16-.09-.11-.14-.24-.14-.39,0-.09.01-.18.04-.26.03-.09.06-.17.12-.24s.1-.15.15-.21c.05-.06.11-.13.18-.21s.12-.13.16-.18c.04-.04.07-.09.11-.16.03-.06.06-.12.08-.18.02-.06.04-.12.06-.21.02-.09.04-.16.05-.21.01-.05.02-.15.03-.27,0-.13.01-.21.02-.26,0-.04,0-.14.01-.3,0-.17,0-.27,0-.31v-7.63c0-.19,0-.36,0-.5,0-.14,0-.27,0-.39s-.01-.23-.03-.33c-.02-.09-.03-.18-.04-.24,0-.06-.02-.12-.06-.18-.04-.06-.06-.1-.07-.13,0-.03-.04-.08-.1-.13s-.1-.09-.12-.11c-.02-.02-.08-.07-.16-.13-.08-.07-.14-.11-.18-.13-.12-.11-.19-.34-.19-.68,0-.17.04-.31.13-.42.09-.1.18-.16.28-.16.15,0,.34.02.54.07.21.04.38.07.52.07.13,0,.49-.02,1.08-.07.59-.04.97-.07,1.14-.07.09,0,.15.02.17.07s.05.23.08.55c.05.39.07.91.07,1.59s-.07,1-.2,1c-.16,0-.28-.36-.39-1.1-.05-.39-.18-.58-.36-.58h-.82c-.12,0-.2.05-.23.15-.03.09-.05.31-.05.63v2.78c0,.86.06,1.29.19,1.29h.58c.15,0,.27-.11.36-.32s.16-.43.22-.65c.05-.21.11-.32.17-.32.09,0,.14.72.14,2.17,0,.84,0,1.41-.02,1.73s-.06.47-.14.47c-.05,0-.09-.08-.13-.23-.04-.15-.08-.31-.12-.48-.04-.18-.09-.34-.18-.49s-.19-.23-.31-.23h-.54c-.07,0-.11,0-.13.02-.02,0-.03.09-.05.26-.02.17-.03.43-.03.8v2.2c0,.93.14,1.39.41,1.39h.98c.14,0,.28-.49.43-1.46,0-.02,0-.06.02-.13l.02-.19c.06-.47.16-.71.29-.71.17,0,.26.4.26,1.19,0,.56-.06,1.26-.19,2.09s-.23,1.24-.33,1.24c-.26,0-.66-.03-1.2-.1-.54-.06-.96-.09-1.24-.09Z"/>
    <path class="cls-9" d="M133.01,102.37c.46,0,.86.37,1.19,1.11.33.74.5,1.7.5,2.86,0,.88-.09,1.66-.28,2.31-.18.66-.42,1.11-.73,1.34-.1.06-.11.18-.02.35.26.6.61,1.65,1.02,3.13s.73,2.35.94,2.58c.07.09.15.18.23.26.09.09.15.15.21.19s.1.09.14.16c.04.07.07.13.09.19s.03.15.03.26c0,.75-.27,1.13-.82,1.13-.15,0-.32-.1-.53-.31-.21-.21-.38-.5-.52-.89-.19-.54-.44-1.34-.74-2.42-.3-1.08-.54-1.87-.72-2.39-.25-.73-.46-1.1-.64-1.1h-.12s-.02.06-.04.18-.02.33-.02.63v.94c0,1.06.04,1.74.12,2.03.05.24.14.42.26.55.04.05.09.1.16.18s.13.15.18.21c.05.07.09.14.15.21s.09.16.12.24c.03.09.04.17.04.26,0,.3-.12.48-.37.55-.02,0-.08-.02-.21-.05-.12-.03-.27-.06-.45-.09s-.36-.05-.52-.05-.33.01-.49.05c-.17.03-.3.07-.41.09-.11.03-.16.05-.18.05-.26-.07-.39-.25-.39-.55,0-.09.01-.18.04-.26.03-.09.06-.17.12-.24s.1-.15.15-.21c.05-.06.11-.13.18-.21s.12-.13.16-.18c.04-.04.07-.09.11-.16.03-.06.06-.12.08-.18.02-.06.04-.12.06-.21.02-.09.04-.16.05-.21.01-.05.02-.15.03-.27,0-.13.01-.21.02-.26,0-.04,0-.14.01-.3,0-.17,0-.27,0-.31v-7.63c0-.19,0-.36,0-.5,0-.14,0-.27,0-.39s-.01-.23-.03-.33c-.02-.09-.03-.18-.04-.24,0-.06-.02-.12-.06-.18-.04-.06-.06-.1-.07-.13,0-.03-.04-.08-.1-.13s-.1-.09-.12-.11c-.02-.02-.08-.07-.16-.13-.08-.07-.14-.11-.18-.13-.12-.11-.19-.34-.19-.68,0-.17.04-.31.13-.42.09-.1.18-.16.28-.16.15,0,.34.03.54.08.21.06.38.08.52.08.13,0,.35-.04.64-.11.3-.07.52-.11.66-.11ZM132.2,108.21c0,.78.13,1.16.38,1.16.28,0,.52-.28.72-.86.2-.57.3-1.24.3-2.02,0-.71-.1-1.3-.3-1.76-.2-.46-.43-.69-.71-.69-.12,0-.21.09-.29.29-.08.19-.12.45-.12.78v3.1Z"/>
    <path class="cls-9" d="M136.62,115.44c-.16,0-.33.01-.49.05-.17.03-.3.07-.41.09-.11.03-.16.05-.18.05-.26-.07-.39-.25-.39-.55,0-.09.01-.18.04-.26.03-.09.06-.17.12-.24s.1-.15.15-.21c.05-.06.11-.13.18-.21s.12-.13.16-.18c.04-.04.07-.09.11-.16.03-.06.06-.12.08-.18.02-.06.04-.12.06-.21.02-.09.04-.16.05-.21.01-.05.02-.15.03-.27,0-.13.01-.21.02-.26,0-.04,0-.14.01-.3,0-.17,0-.27,0-.31v-7.63c0-.19,0-.36,0-.5,0-.14,0-.27,0-.39s-.01-.23-.03-.33c-.02-.09-.03-.18-.04-.24,0-.06-.02-.12-.06-.18-.04-.06-.06-.1-.07-.13,0-.03-.04-.08-.1-.13s-.1-.09-.12-.11c-.02-.02-.08-.07-.16-.13-.08-.07-.14-.11-.18-.13-.12-.11-.19-.34-.19-.68,0-.17.04-.31.13-.42.09-.1.18-.16.28-.16.15,0,.4-.04.76-.13s.62-.13.79-.13c.33,0,.61.04.86.13s.49.24.74.47c.24.23.43.58.56,1.05s.2,1.06.2,1.77c0,1.49-.32,2.48-.97,2.97-.04.02-.06.06-.07.11,0,.06,0,.11.02.16.02.06.05.09.09.11.33.15.62.58.85,1.28s.34,1.5.34,2.41c0,1.25-.2,2.31-.59,3.18s-.84,1.31-1.33,1.31c-.09,0-.27-.03-.54-.1-.26-.06-.5-.09-.7-.09ZM137.16,104.13v1.87c0,.62.09.94.27.94.34,0,.61-.18.81-.55.19-.36.29-1.07.29-2.13,0-.52-.1-.94-.29-1.26-.19-.32-.41-.48-.64-.48-.16,0-.28.09-.34.27-.06.18-.09.63-.09,1.34ZM137.16,109.08v2.78c0,.6.06,1.08.19,1.44s.3.53.52.53.41-.26.55-.78c.14-.52.21-1.17.21-1.97,0-1.77-.37-2.65-1.12-2.65-.23,0-.35.22-.35.65Z"/>
    <path class="cls-9" d="M145.83,114.02c.23.26.35.62.35,1.07,0,.3-.12.48-.37.55-.02,0-.06-.02-.14-.05-.08-.03-.19-.06-.33-.09s-.3-.05-.46-.05-.31.01-.45.05-.25.07-.33.09c-.08.03-.12.05-.14.05-.26-.07-.39-.25-.39-.55,0-.24.03-.43.09-.57.06-.14.17-.28.33-.44.05-.07.11-.21.17-.45.06-.24.09-.45.07-.64l-.19-1.71c-.04-.54-.15-.81-.34-.81h-1.13c-.15,0-.26.24-.33.71l-.18,1.49c-.09.77-.05,1.24.14,1.39.34.3.5.65.5,1.04,0,.3-.12.48-.37.55-.02,0-.06-.02-.15-.05-.08-.03-.2-.06-.34-.09s-.3-.05-.47-.05-.32.01-.47.05-.26.07-.35.09c-.09.03-.14.05-.15.05-.26-.07-.38-.25-.38-.55,0-.43.21-.83.64-1.2.27-.26.46-.69.55-1.29l1.53-9.82c.07-.45.12-.71.15-.77.05-.13.12-.3.19-.5s.14-.37.19-.5c.05-.13.1-.26.16-.39s.1-.23.14-.29c.04-.07.07-.1.09-.1.05,0,.1.11.17.34.06.23.12.53.16.92l1.19,10.86c.02.24.09.53.22.88.12.34.26.61.42.8ZM142.54,108.66c-.02.17-.02.28,0,.32s.08.07.17.07h.9c.07,0,.11-.03.12-.08,0-.05,0-.16-.02-.31,0-.02-.01-.04-.02-.07,0-.02,0-.04,0-.06l-.38-3.53c-.02-.1-.04-.18-.06-.22-.02-.04-.05-.04-.07,0-.02.04-.04.13-.06.26l-.56,3.62Z"/>
    <path class="cls-9" d="M148.91,104.07c.46,0,.86.37,1.19,1.11.33.74.5,1.7.5,2.86,0,.88-.09,1.66-.28,2.31-.18.66-.42,1.11-.73,1.34-.1.06-.11.18-.02.35.26.6.61,1.65,1.02,3.13s.73,2.35.94,2.58c.07.09.15.18.23.26.09.09.15.15.21.19s.1.09.14.16c.04.07.07.13.09.19s.03.15.03.26c0,.75-.27,1.13-.82,1.13-.15,0-.32-.1-.53-.31-.21-.21-.38-.5-.52-.89-.19-.54-.44-1.34-.74-2.42-.3-1.08-.54-1.87-.72-2.39-.25-.73-.46-1.1-.64-1.1h-.12s-.02.06-.04.18-.02.33-.02.63v.94c0,1.06.04,1.74.12,2.03.05.24.14.42.26.55.04.05.09.1.16.18s.13.15.18.21c.05.07.09.14.15.21s.09.16.12.24c.03.09.04.17.04.26,0,.3-.12.48-.37.55-.02,0-.08-.02-.21-.05-.12-.03-.27-.06-.45-.09s-.36-.05-.52-.05-.33.01-.49.05c-.17.03-.3.07-.41.09-.11.03-.16.05-.18.05-.26-.07-.39-.25-.39-.55,0-.09.01-.18.04-.26.03-.09.06-.17.12-.24s.1-.15.15-.21c.05-.06.11-.13.18-.21s.12-.13.16-.18c.04-.04.07-.09.11-.16.03-.06.06-.12.08-.18.02-.06.04-.12.06-.21.02-.09.04-.16.05-.21.01-.05.02-.15.03-.27,0-.13.01-.21.02-.26,0-.04,0-.14.01-.3,0-.17,0-.27,0-.31v-7.63c0-.19,0-.36,0-.5,0-.14,0-.27,0-.39s-.01-.23-.03-.33c-.02-.09-.03-.18-.04-.24,0-.06-.02-.12-.06-.18-.04-.06-.06-.1-.07-.13,0-.03-.04-.08-.1-.13s-.1-.09-.12-.11c-.02-.02-.08-.07-.16-.13-.08-.07-.14-.11-.18-.13-.12-.11-.19-.34-.19-.68,0-.17.04-.31.13-.42.09-.1.18-.16.28-.16.15,0,.34.03.54.08.21.06.38.08.52.08.13,0,.35-.04.64-.11.3-.07.52-.11.66-.11ZM148.09,109.91c0,.78.13,1.16.38,1.16.28,0,.52-.28.72-.86.2-.57.3-1.24.3-2.02,0-.71-.1-1.3-.3-1.76-.2-.46-.43-.69-.71-.69-.12,0-.21.09-.29.29-.08.19-.12.45-.12.78v3.1Z"/>
    <path class="cls-9" d="M151.47,103.12c0-.19,0-.36,0-.5,0-.14,0-.27,0-.39s-.01-.23-.03-.33c-.02-.09-.03-.18-.04-.24,0-.06-.02-.12-.06-.18-.04-.06-.06-.1-.07-.13,0-.03-.04-.08-.1-.13s-.1-.09-.12-.11c-.02-.02-.08-.07-.16-.13-.08-.07-.14-.11-.18-.13-.12-.11-.19-.34-.19-.68,0-.17.04-.31.13-.42.09-.1.18-.16.28-.16.15,0,.34.03.54.08.21.06.38.08.52.08s.32-.02.53-.08c.21-.05.39-.08.52-.08.1,0,.19.06.28.16.08.11.13.25.13.42,0,.35-.06.57-.18.68-.37.3-.59.52-.64.64-.1.22-.15.75-.15,1.61v5.33c0,1.18.15,2.21.44,3.09.29.87.64,1.31,1.06,1.31.48,0,.85-.38,1.11-1.15.26-.76.38-1.8.38-3.12v-5.27c0-.53-.06-1.04-.19-1.5-.13-.46-.26-.75-.4-.86-.16-.13-.25-.39-.25-.78,0-.17.04-.31.13-.42.08-.1.18-.16.28-.16.07,0,.18.03.33.08.15.06.26.08.35.08.08,0,.21-.02.4-.08.19-.05.32-.08.4-.08.1,0,.19.06.28.16.09.11.13.25.13.42,0,.37-.07.59-.2.68-.26.19-.44.47-.53.82s-.13.86-.13,1.5v4.46c0,1.96-.22,3.62-.66,4.96-.44,1.35-1,2.02-1.67,2.02s-1.25-.69-1.65-2.07c-.4-1.38-.59-3.05-.59-5.01v-4.43Z"/>
    <path class="cls-9" d="M162.32,114.85c.06-.04.11-.17.13-.37.03-.2.04-.39.04-.56s0-.39-.01-.65c0-.26-.01-.4-.01-.42l-.15-5.17c-.02-.34-.04-.49-.08-.45-.02,0-.05.08-.07.23l-.87,4.78c-.02.07-.08.47-.19,1.21s-.21,1.31-.3,1.69-.17.58-.25.58c-.03,0-.06,0-.09-.03-.03-.02-.05-.06-.08-.11-.03-.06-.05-.11-.07-.17-.02-.05-.04-.13-.06-.22-.02-.1-.04-.18-.06-.25-.02-.06-.04-.17-.06-.3-.03-.14-.05-.25-.06-.31-.01-.07-.03-.18-.06-.34-.03-.16-.05-.27-.05-.34l-1.1-6.59c-.05-.33-.09-.23-.12.29v.35s-.09,4.17-.09,4.17c-.02.6.02,1.19.1,1.77.08.58.18.95.31,1.1.04.05.09.11.17.19.08.09.13.16.18.21.04.05.09.12.15.19s.09.16.12.24c.02.09.04.17.04.26,0,.3-.12.48-.37.55-.02,0-.08-.02-.2-.05-.12-.03-.27-.06-.46-.09s-.35-.05-.52-.05-.32.01-.48.05c-.16.03-.28.07-.38.09-.1.03-.15.05-.17.05-.26-.07-.38-.25-.38-.55,0-.41.19-.78.58-1.1.4-.36.61-.99.64-1.87l.28-6.49c.03-.71.03-1.26-.01-1.66-.04-.4-.08-.65-.13-.76-.05-.11-.14-.21-.25-.32,0-.02-.27-.25-.79-.68-.12-.11-.19-.34-.19-.68,0-.17.04-.31.13-.42.09-.1.18-.16.28-.16.15,0,.42.03.8.08.38.06.64.08.78.08.21,0,.35.22.43.65l1.28,7.5c.18,1.01.38.84.62-.52l1.15-6.82c.09-.54.28-.81.56-.81.05,0,.21-.02.47-.08.27-.05.48-.08.62-.08.1,0,.19.06.28.16.09.11.13.25.13.42,0,.35-.06.57-.18.68-.18.15-.3.25-.36.29-.06.04-.14.13-.24.26-.1.13-.17.25-.19.37-.03.12-.05.28-.08.48-.02.21-.03.45-.02.73l.15,5.72c.04,1.5.1,2.49.18,2.95.08.46.21.78.4.96.33.3.5.68.5,1.13,0,.3-.12.48-.37.55-.02,0-.06-.02-.14-.05-.07-.03-.18-.06-.31-.09-.14-.03-.29-.05-.45-.05s-.33.01-.5.05c-.17.03-.3.07-.41.09-.11.03-.17.05-.18.05-.26-.07-.39-.25-.39-.55,0-.39.17-.72.51-1Z"/>
  </g>
  <g class="cls-1">
    <path class="cls-9" d="M124.65,119.18c.89,0,1.74.35,2.53,1.03.79.69,1.45,1.7,1.96,3.03.51,1.33.77,2.84.77,4.52,0,1.36-.1,2.63-.3,3.82s-.49,2.25-.88,3.18-.91,1.67-1.55,2.22-1.37.82-2.19.82c-.57,0-1.17-.06-1.82-.17s-1.06-.17-1.24-.17c-.21,0-.46.01-.73.05-.28.03-.51.06-.71.09-.19.03-.3.05-.32.05-.35-.06-.52-.24-.52-.52,0-.14.04-.26.13-.36.09-.09.21-.19.39-.31s.29-.2.36-.26c.49-.43.74-1.29.74-2.59v-10.86c0-.23,0-.42-.02-.58-.01-.17-.03-.31-.05-.43-.01-.12-.05-.23-.11-.34-.06-.1-.1-.18-.13-.25-.03-.06-.09-.13-.19-.2s-.17-.12-.21-.15-.14-.08-.27-.15c-.14-.07-.24-.13-.31-.17-.17-.1-.25-.27-.25-.52,0-.37.18-.55.55-.55.17,0,.38,0,.64.01.26.01.46.02.62.02.33,0,.85-.04,1.56-.12.72-.09,1.24-.13,1.56-.13ZM122.76,121.55v10.89c0,1.5.22,2.53.67,3.1.45.58,1.06.87,1.85.87.88,0,1.58-.81,2.1-2.43.51-1.62.77-3.49.77-5.6,0-2.23-.39-4.1-1.17-5.59-.78-1.48-1.73-2.23-2.85-2.23-.37,0-.69.09-.96.26-.27.17-.41.41-.41.72Z"/>
    <path class="cls-9" d="M135.08,121.5c1.01,0,1.88.63,2.61,1.88.73,1.25,1.1,2.82,1.1,4.7,0,2.28-.42,4.21-1.25,5.8s-1.83,2.38-2.99,2.38c-.96,0-1.77-.67-2.43-2.01s-.99-2.96-.99-4.84c0-2.18.38-4.04,1.15-5.58.77-1.55,1.69-2.32,2.79-2.32ZM132.74,128.15c0,1.76.2,3.33.61,4.7.41,1.37.98,2.06,1.73,2.06.66,0,1.18-.62,1.54-1.85s.55-2.64.55-4.21-.23-2.91-.69-4.12c-.46-1.21-1.05-1.82-1.76-1.82-.6,0-1.08.54-1.43,1.6-.36,1.07-.54,2.28-.54,3.63Z"/>
    <path class="cls-9" d="M146.5,134.4c.08-.04.14-.16.18-.36.04-.19.05-.37.05-.54s0-.37-.01-.62c-.01-.24-.02-.38-.02-.4l-.2-4.92c-.02-.32-.06-.47-.11-.43-.03,0-.06.07-.09.22l-1.18,4.55c-.02.06-.11.45-.26,1.15s-.29,1.24-.41,1.61-.23.55-.34.55c-.04,0-.08,0-.12-.03-.04-.02-.07-.05-.11-.1-.04-.05-.07-.1-.09-.16-.03-.05-.05-.12-.09-.21-.03-.09-.06-.17-.08-.23-.02-.06-.05-.16-.09-.29-.04-.14-.06-.23-.08-.29-.01-.06-.04-.17-.08-.32-.04-.15-.06-.26-.07-.32l-1.48-6.27c-.07-.31-.13-.22-.16.27l-.02.34-.11,3.97c-.02.57.02,1.14.14,1.69.11.55.25.91.42,1.05.05.05.13.1.23.18.1.09.18.15.24.2.06.05.12.11.2.18s.13.15.16.23c.03.08.05.16.05.25,0,.28-.17.46-.5.52-.02,0-.11-.02-.27-.05-.16-.03-.37-.06-.62-.09s-.48-.05-.7-.05-.44.01-.64.05c-.21.03-.38.06-.51.09-.13.03-.21.05-.23.05-.35-.06-.52-.24-.52-.52,0-.39.26-.74.79-1.05.54-.35.82-.94.87-1.78l.38-6.18c.04-.68.04-1.2-.02-1.58-.05-.38-.11-.62-.18-.73-.07-.1-.18-.2-.34-.31-.01-.02-.37-.23-1.07-.64-.17-.1-.25-.32-.25-.65,0-.16.06-.3.17-.4.12-.1.24-.15.38-.15.21,0,.57.03,1.08.08.51.05.86.08,1.05.08.28,0,.48.21.58.62l1.74,7.14c.24.96.52.8.83-.49l1.56-6.49c.13-.51.38-.77.76-.77.06,0,.28-.02.64-.08.36-.05.64-.08.84-.08.14,0,.26.05.38.15.12.1.17.24.17.4,0,.33-.08.55-.24.65-.24.14-.4.23-.49.27-.08.04-.19.12-.33.25-.14.12-.23.24-.26.35-.04.11-.07.27-.1.46-.03.2-.04.43-.03.69l.21,5.45c.05,1.43.13,2.37.24,2.81.1.44.28.74.54.91.45.28.68.64.68,1.08,0,.28-.17.46-.5.52-.02,0-.08-.02-.18-.05-.1-.03-.24-.06-.42-.09-.18-.03-.39-.05-.61-.05s-.44.01-.67.05c-.23.03-.41.06-.55.09-.14.03-.23.05-.24.05-.35-.06-.52-.24-.52-.52,0-.37.23-.69.69-.96Z"/>
    <path class="cls-9" d="M150.78,125.23c0-.18,0-.34,0-.47,0-.14,0-.26,0-.37s-.01-.22-.04-.31c-.03-.09-.04-.17-.05-.23,0-.06-.03-.12-.09-.17-.05-.05-.08-.09-.09-.13-.01-.03-.06-.07-.14-.12s-.13-.09-.17-.11c-.03-.02-.1-.06-.21-.12-.11-.06-.19-.1-.24-.12-.17-.1-.25-.32-.25-.65,0-.16.06-.3.17-.4.12-.1.24-.15.38-.15.21,0,.45.03.73.08.28.05.51.08.7.08s.43-.02.72-.08c.29-.05.52-.08.7-.08.14,0,.26.05.38.15.11.1.17.24.17.4,0,.33-.08.55-.24.65-.5.28-.79.49-.87.61-.14.21-.2.72-.2,1.54v5.08c0,1.13.2,2.11.59,2.94.4.83.87,1.24,1.43,1.24.65,0,1.15-.36,1.5-1.09.35-.73.52-1.72.52-2.97v-5.01c0-.51-.09-.99-.26-1.43-.17-.44-.35-.71-.54-.82-.22-.12-.33-.37-.33-.74,0-.16.06-.3.18-.4.11-.1.24-.15.38-.15.09,0,.24.03.44.08.2.05.36.08.47.08.1,0,.28-.02.54-.08.25-.05.43-.08.54-.08.14,0,.26.05.38.15.12.1.18.24.18.4,0,.35-.09.56-.27.65-.36.18-.6.45-.72.78s-.18.82-.18,1.43v4.24c0,1.87-.3,3.44-.89,4.72-.6,1.28-1.35,1.92-2.26,1.92s-1.69-.66-2.22-1.97-.8-2.9-.8-4.77v-4.22Z"/>
    <path class="cls-9" d="M162.08,121.36c.17,0,.32.03.45.09.13.06.26.14.39.24.13.1.24.18.32.22.24.14.36.36.36.64,0,1.46-.08,2.19-.25,2.19-.19,0-.34-.18-.44-.55-.2-.69-.58-1.05-1.14-1.05-.24,0-.45.15-.62.45s-.26.67-.26,1.12c0,.62.11,1.11.33,1.48s.6.83,1.15,1.38c.65.66,1.09,1.3,1.32,1.92.23.63.35,1.49.35,2.6,0,1.29-.3,2.28-.91,2.98s-1.3,1.05-2.09,1.05c-.38,0-.72-.12-1.02-.35-.3-.24-.47-.48-.51-.73-.15-.72-.22-1.49-.22-2.31,0-.35.08-.52.24-.52.09,0,.23.2.39.6.17.4.39.81.66,1.22s.58.62.92.62c.28,0,.52-.2.7-.6.18-.4.27-.88.27-1.46,0-.39-.05-.75-.13-1.08-.09-.33-.23-.64-.43-.92-.2-.28-.37-.5-.5-.66-.13-.16-.33-.36-.61-.63-.95-.91-1.42-2.23-1.42-3.97,0-1.21.27-2.17.81-2.89.54-.72,1.16-1.08,1.87-1.08Z"/>
  </g>
</svg>